<svg width="207" height="38" viewBox="0 0 207 38" fill="none" xmlns="http://www.w3.org/2000/svg">
<g id="Clip path group">
<mask id="mask0_3116_4" style="mask-type:luminance" maskUnits="userSpaceOnUse" x="0" y="0" width="207" height="38">
<g id="clip0_11672_41663">
<path id="Vector" d="M206.602 0H0V38H206.602V0Z" fill="white"/>
</g>
</mask>
<g mask="url(#mask0_3116_4)">
<g id="Group">
<path id="Vector_2" d="M63.1149 12.0253C63.1149 12.5831 63.0199 13.1101 62.83 13.637C62.64 14.1639 62.3551 14.6289 61.9434 15.0628C61.5635 15.4967 61.0569 15.8376 60.4555 16.1166C59.8539 16.3956 59.1573 16.5195 58.3342 16.5195H51.9704V7.531H58.1758C59.6006 7.531 60.8037 7.90293 61.7219 8.64681C62.64 9.39069 63.1149 10.5375 63.1149 12.0253ZM66.376 8.42985C65.8378 7.40701 65.1412 6.53915 64.318 5.88826C63.4632 5.23736 62.5134 4.74144 61.4052 4.43148C60.3288 4.12153 59.2207 3.96655 58.0809 3.96655H48.0761V30.5913H51.9704V20.084H58.6191C59.9488 20.084 61.1836 19.8361 62.2284 19.3711C63.2732 18.9062 64.1913 18.2863 64.9196 17.5424C65.6478 16.7985 66.2177 15.9306 66.5976 14.9699C66.9776 14.009 67.1675 13.0792 67.1675 12.1493C67.1991 10.7235 66.9142 9.45269 66.376 8.42985Z" fill="#202A3B"/>
<path id="Vector_3" d="M71.0609 19.216C71.1875 17.7903 71.5992 16.6744 72.2956 15.8995C73.0555 15.0626 74.0054 14.6907 75.2401 14.6907C76.4748 14.6907 77.4563 15.0936 78.1845 15.8685C78.8811 16.6124 79.2927 17.7592 79.3877 19.216H71.0609ZM82.6487 16.1165C82.2371 15.0626 81.6672 14.1948 80.9706 13.4509C80.2742 12.738 79.4193 12.1801 78.4694 11.8082C77.5197 11.4362 76.5066 11.2502 75.4617 11.2502C74.5119 11.2502 73.5304 11.4052 72.5489 11.7461C71.5674 12.0562 70.6809 12.614 69.8895 13.3889C69.098 14.1638 68.433 15.1866 67.9581 16.4574C67.4515 17.7282 67.1982 19.309 67.1982 21.1377C67.1982 23.0904 67.4515 24.7021 67.9265 25.9419C68.4014 27.2128 69.0662 28.2046 69.8578 28.9175C70.6493 29.6303 71.5674 30.1573 72.5489 30.4362C73.5304 30.7152 74.5119 30.8391 75.5251 30.8391C76.7281 30.8391 77.8996 30.6532 79.071 30.2813C80.2108 29.9093 81.2873 29.2584 82.2054 28.4215L82.3637 28.2665L82.3954 28.2356L82.3637 28.2046L80.0209 25.663L79.9893 25.632L79.9575 25.663L79.7992 25.818C79.1977 26.3758 78.5012 26.7788 77.7096 27.0887C76.9497 27.3677 76.2533 27.5227 75.6833 27.5227C74.9235 27.5227 74.2269 27.3987 73.6571 27.1198C73.0871 26.8718 72.6123 26.4999 72.2324 26.0349C71.8525 25.57 71.5674 25.012 71.3775 24.3921C71.1875 23.7723 71.0925 23.0904 71.0925 22.4085V22.3775H83.2819V19.681C83.2503 18.3481 83.0603 17.1393 82.6487 16.1165Z" fill="#202A3B"/>
<path id="Vector_4" d="M97.5929 20.5197C97.5929 21.5115 97.5612 22.2864 97.5295 22.8753C97.4979 23.4333 97.4028 23.9602 97.2762 24.3631C96.928 25.4479 96.3897 26.2228 95.6299 26.7187C94.87 27.2147 94.0152 27.4626 93.0337 27.4626C92.1472 27.4626 91.3873 27.2456 90.7225 26.8427C90.0893 26.4088 89.5827 25.8199 89.2344 25.076C88.9811 24.5491 88.8545 23.9911 88.7912 23.3403C88.7278 22.6894 88.6962 21.9765 88.6962 21.1396C88.7278 20.3648 88.7595 19.5899 88.8545 18.908C88.9179 18.257 89.1078 17.6372 89.3611 17.1103C89.7093 16.3354 90.2475 15.7155 90.9441 15.3125C91.609 14.8786 92.4322 14.6616 93.3187 14.6616C94.1418 14.6616 94.9334 14.8786 95.5982 15.2815C96.2631 15.6844 96.7696 16.3354 97.0863 17.2033C97.2762 17.6372 97.4028 18.1021 97.4662 18.629C97.5612 19.1869 97.5929 19.8378 97.5929 20.5197ZM100.949 17.0792C100.727 16.0874 100.379 15.2506 99.9358 14.5377C99.2392 13.5148 98.3527 12.7089 97.2446 12.1511C96.1364 11.5931 94.87 11.3142 93.4453 11.3142C91.7356 11.3142 90.2475 11.6861 88.9811 12.4299C87.7147 13.1739 86.7332 14.2587 86.0684 15.6535C85.6884 16.3973 85.4352 17.2342 85.3085 18.1331C85.1819 19.0319 85.0869 20.0238 85.0869 21.0776C85.0869 22.5964 85.2135 23.8981 85.4034 24.983C85.6251 26.0678 86.005 27.0597 86.5433 27.8655C87.2398 28.8574 88.158 29.6013 89.266 30.0662C90.3742 30.5311 91.6406 30.7791 93.0337 30.7791C94.5851 30.7791 95.9781 30.4692 97.1813 29.8803C98.4161 29.2603 99.3658 28.3925 100.062 27.2456C100.506 26.5018 100.822 25.5409 101.012 24.4251C101.202 23.3403 101.297 21.9454 101.297 20.3648C101.297 19.1869 101.171 18.0711 100.949 17.0792Z" fill="#202A3B"/>
<path id="Vector_5" d="M115.323 21.0757C115.323 21.8196 115.26 22.5635 115.165 23.3073C115.071 24.0513 114.881 24.7021 114.563 25.291C114.279 25.849 113.867 26.3449 113.329 26.6858C112.791 27.0578 112.031 27.2128 111.112 27.2128C110.194 27.2128 109.498 27.0268 108.959 26.6548C108.453 26.2829 108.041 25.787 107.757 25.229C107.471 24.6402 107.282 23.9583 107.219 23.2144C107.123 22.4705 107.092 21.7266 107.092 21.0447C107.092 20.3628 107.155 19.6499 107.25 18.9061C107.345 18.1622 107.535 17.4803 107.851 16.8913C108.137 16.3024 108.579 15.7755 109.118 15.4036C109.656 15.0007 110.384 14.8147 111.302 14.8147C112.221 14.8147 112.981 15.0007 113.487 15.3726C114.025 15.7446 114.405 16.2405 114.691 16.8294C114.943 17.4493 115.133 18.1312 115.197 18.8441C115.292 19.619 115.323 20.3628 115.323 21.0757ZM118.87 17.4493C118.68 16.3024 118.3 15.2796 117.794 14.3497C117.254 13.4199 116.527 12.6761 115.609 12.1181C114.691 11.5602 113.519 11.2812 112.126 11.2812C111.144 11.2812 110.194 11.4672 109.277 11.8391C108.517 12.1491 107.789 12.645 107.092 13.2959V11.4672H103.419V37.9991H107.092V29.2894C107.599 29.7543 108.169 30.1263 108.801 30.3432C109.593 30.6532 110.511 30.8082 111.492 30.8082C113.012 30.8082 114.279 30.4982 115.292 29.9403C116.273 29.3514 117.065 28.5765 117.666 27.6467C118.236 26.7169 118.648 25.632 118.838 24.4542C119.06 23.2764 119.155 22.0676 119.155 20.8587C119.186 19.7429 119.091 18.5651 118.87 17.4493Z" fill="#202A3B"/>
<path id="Vector_6" d="M127.925 27.2445H126.786C125.646 27.2445 125.108 26.7795 125.108 25.7567V2.85132H121.403V26.0046C121.403 27.6784 121.878 28.8873 122.827 29.5692C123.746 30.251 124.918 30.592 126.374 30.592H127.989V27.2754H127.925V27.2445Z" fill="#202A3B"/>
<path id="Vector_7" d="M132.515 19.216C132.642 17.7903 133.053 16.6744 133.781 15.8995C134.51 15.0936 135.492 14.6907 136.726 14.6907C137.961 14.6907 138.943 15.0936 139.671 15.8685C140.367 16.6124 140.779 17.7592 140.874 19.216H132.515ZM144.104 16.1165C143.692 15.0626 143.122 14.1948 142.426 13.4509C141.697 12.738 140.874 12.1801 139.925 11.8082C138.974 11.4362 137.961 11.2502 136.948 11.2502C135.998 11.2502 135.017 11.4052 134.035 11.7461C133.053 12.0562 132.167 12.614 131.376 13.3889C130.584 14.1638 129.92 15.1866 129.444 16.4574C128.938 17.7282 128.685 19.309 128.685 21.1377C128.685 23.0904 128.938 24.7021 129.413 25.9419C129.888 27.2128 130.552 28.2046 131.344 28.9175C132.136 29.6303 133.053 30.1573 134.035 30.4362C135.017 30.7152 135.998 30.8391 137.012 30.8391C138.214 30.8391 139.386 30.6532 140.557 30.2813C141.729 29.9093 142.774 29.2584 143.692 28.4215L143.85 28.2665L143.882 28.2356L143.85 28.2046L141.507 25.663L141.475 25.632L141.444 25.663L141.285 25.818C140.684 26.3758 139.987 26.7788 139.196 27.0887C138.436 27.3677 137.74 27.5227 137.17 27.5227C136.41 27.5227 135.713 27.3987 135.143 27.1198C134.573 26.8718 134.099 26.4999 133.719 26.0349C133.339 25.57 133.053 25.012 132.864 24.3921C132.674 23.7723 132.579 23.0904 132.579 22.4085V22.3775H144.705V19.681C144.705 18.3481 144.515 17.1393 144.104 16.1165Z" fill="#202A3B"/>
<path id="Vector_8" d="M166.107 24.8577L162.561 23.153L162.529 23.1219L162.497 23.1839L162.403 23.4319C161.991 24.5477 161.326 25.4775 160.408 26.1285C159.49 26.8104 158.382 27.1513 157.083 27.1513C156.102 27.1513 155.216 26.9653 154.488 26.5934C153.76 26.2215 153.158 25.7256 152.651 25.1366C152.176 24.5477 151.797 23.8349 151.543 23.06C151.289 22.2851 151.163 21.4483 151.163 20.6113V13.8235C151.163 13.0175 151.289 12.2427 151.543 11.4678C151.797 10.6929 152.145 10.011 152.651 9.4531C153.126 8.8642 153.76 8.39927 154.488 8.02733C155.216 7.68638 156.102 7.50041 157.083 7.50041C158.382 7.50041 159.522 7.81036 160.408 8.46126C161.294 9.11216 161.959 9.98002 162.371 11.0338L162.466 11.2509L162.497 11.2818L162.529 11.2509L166.076 9.67007L166.107 9.63907L166.076 9.60808L165.98 9.42211C165.284 7.71738 164.144 6.3226 162.625 5.29976C161.104 4.27692 159.205 3.75 156.989 3.75C155.374 3.75 153.95 4.02896 152.714 4.55587C151.511 5.0828 150.467 5.82668 149.643 6.72554C148.82 7.6244 148.218 8.70922 147.808 9.88703C147.428 11.0649 147.206 12.3356 147.206 13.6375V20.8283C147.206 22.1611 147.396 23.4319 147.808 24.6098C148.187 25.8185 148.82 26.8723 149.643 27.7712C150.467 28.6701 151.479 29.383 152.714 29.9408C153.918 30.4678 155.374 30.7468 156.989 30.7468C159.205 30.7468 161.104 30.2509 162.656 29.228C164.207 28.2361 165.347 26.8104 166.012 25.0127L166.076 24.8267V24.7956L166.107 24.8577Z" fill="#FF3200"/>
<path id="Vector_9" d="M170.445 19.216C170.572 17.7903 170.983 16.6744 171.68 15.8995C172.439 15.0626 173.39 14.6907 174.624 14.6907C175.86 14.6907 176.809 15.0936 177.569 15.8685C178.265 16.6124 178.677 17.7592 178.773 19.216H170.445ZM182.002 16.1165C181.59 15.0936 181.02 14.1948 180.324 13.4509C179.595 12.738 178.773 12.1801 177.823 11.8082C176.872 11.4362 175.86 11.2502 174.846 11.2502C173.896 11.2502 172.915 11.4052 171.933 11.7461C170.952 12.0562 170.066 12.614 169.274 13.3889C168.482 14.1638 167.818 15.1866 167.343 16.4574C166.836 17.7282 166.583 19.309 166.583 21.1377C166.583 23.0904 166.836 24.7021 167.311 25.9419C167.786 27.2128 168.45 28.2046 169.242 28.9175C170.034 29.6303 170.952 30.1573 171.933 30.4362C172.915 30.7152 173.896 30.8391 174.91 30.8391C176.112 30.8391 177.284 30.6532 178.455 30.2813C179.627 29.9093 180.672 29.2584 181.59 28.4215L181.748 28.2665L181.78 28.2356L181.748 28.2046L179.405 25.663L179.373 25.632L179.342 25.663L179.183 25.818C178.583 26.3758 177.885 26.7788 177.094 27.0887C176.334 27.3677 175.638 27.5227 175.068 27.5227C174.308 27.5227 173.611 27.3987 173.041 27.1198C172.471 26.8718 171.997 26.4999 171.617 26.0349C171.237 25.57 170.952 25.012 170.762 24.3921C170.572 23.7723 170.477 23.0904 170.477 22.4085V22.3775H182.666V19.681C182.635 18.3481 182.413 17.1393 182.002 16.1165Z" fill="#FF3200"/>
<path id="Vector_10" d="M196.596 12.2111L196.438 12.1181C196.058 11.8391 195.551 11.6532 194.981 11.4982C194.411 11.3432 193.747 11.2812 193.082 11.2812C192.038 11.2812 191.056 11.4672 190.201 11.8701C189.473 12.2111 188.807 12.738 188.207 13.4819V11.4672H184.534V30.5602H188.207V19.061C188.207 17.6353 188.587 16.5814 189.346 15.8685C190.106 15.1557 191.088 14.8147 192.258 14.8147C193.272 14.8147 194.095 15.0316 194.791 15.4966L195.013 15.6516L195.045 15.6826L195.077 15.6205L196.596 12.2421V12.2111Z" fill="#FF3200"/>
<path id="Vector_11" d="M206.569 27.2456H204.702C204.005 27.2456 203.594 27.0597 203.404 26.6877C203.182 26.2228 203.087 25.7269 203.087 25.1999V14.6616H205.968V11.4691H203.087V6.88184H199.414V11.4691H197.166V14.6306H199.414V25.9439C199.414 27.4316 199.857 28.6094 200.713 29.3842C201.567 30.1591 202.707 30.5621 204.068 30.5621H206.601V27.2766H206.569V27.2456Z" fill="#FF3200"/>
<path id="Vector_12" d="M21.323 27.9266C15.624 25.695 13.6294 21.1697 15.2441 16.2105C16.099 13.5449 17.9353 11.4372 20.3099 10.3214C24.0141 8.55465 28.32 10.8793 28.8582 14.8776C29.2698 18.0082 28.2884 21.4486 26.8636 23.5872C25.9455 25.044 24.8373 26.3769 23.5709 27.4927C22.9694 28.0505 22.0829 28.2055 21.323 27.9266ZM6.63243 18.0082C6.34748 11.6542 10.685 6.10604 16.7005 4.49429C18.3153 4.06036 20.0566 4.24633 21.5129 5.0212H21.5447H21.2596C15.7824 5.39315 11.3499 9.11256 9.89349 13.9788C9.89349 13.9478 9.92514 13.9168 9.92514 13.8858C9.86182 14.0408 9.7985 14.2268 9.73518 14.3817C7.74056 20.4878 11.6982 26.8108 18.1886 29.2284C18.8851 29.4764 19.5817 29.6623 20.3099 29.7863H20.2782C19.0435 30.4372 17.5554 30.5922 16.2256 30.1892C10.8749 28.5464 6.88572 23.7732 6.63243 18.0082ZM36.8368 22.0995C36.995 20.8907 37.1851 19.6199 37.2483 18.2871C37.2483 8.18271 28.8899 0 18.5685 0C14.8009 0 11.0966 1.11583 7.99384 3.1615C7.13901 3.71941 6.34748 4.37031 5.58763 5.0832C4.82777 5.79609 4.1629 6.53997 3.52968 7.37683C2.89647 8.18271 2.35824 9.05058 1.88333 9.94943C1.3451 11.0032 0.901844 12.119 0.585237 13.2659C0.26863 14.4128 0.0786652 15.5906 0.0153438 16.7994C-0.0796383 18.907 0.26863 21.0457 0.996826 23.0294C1.75669 25.1061 2.92813 27.0587 4.41618 28.6705C4.63781 28.9184 4.85944 29.1354 5.08105 29.3834C7.8672 32.1109 11.5715 33.9087 15.4974 34.4356C16.5423 34.5906 17.6187 34.6215 18.6952 34.5906C23.7926 34.3735 28.32 32.049 31.4861 28.5155C32.8791 31.739 35.7603 34.4665 41.7442 33.8776C40.9527 33.6297 34.9688 33.6607 36.8368 22.0995Z" fill="#FF3200"/>
</g>
</g>
</g>
</svg>
