<svg width="47" height="46" viewBox="0 0 47 46" fill="none" xmlns="http://www.w3.org/2000/svg">
<circle cx="23.5" cy="23" r="22.5" stroke="white" />
<path d="M16.8871 23.7824H19.5179V34.6129C19.5179 34.8268 19.6912 35 19.905 35H24.3656C24.5794 35 24.7527 34.8268 24.7527 34.6129V23.8334H27.777C27.9736 23.8334 28.1391 23.6859 28.1616 23.4905L28.6209 19.5033C28.6335 19.3936 28.5988 19.2838 28.5254 19.2014C28.4519 19.1191 28.3468 19.0719 28.2364 19.0719H24.7529V16.5725C24.7529 15.8191 25.1585 15.437 25.9588 15.437C26.0728 15.437 28.2364 15.437 28.2364 15.437C28.4503 15.437 28.6235 15.2637 28.6235 15.0499V11.39C28.6235 11.1761 28.4503 11.0029 28.2364 11.0029H25.0974C25.0753 11.0018 25.0261 11 24.9537 11C24.409 11 22.5159 11.1069 21.0204 12.4827C19.3635 14.0072 19.5938 15.8326 19.6489 16.1491V19.0718H16.8871C16.6733 19.0718 16.5 19.2451 16.5 19.4589V23.3953C16.5 23.609 16.6733 23.7824 16.8871 23.7824Z" fill="white" />
</svg>
