<?xml version="1.0" encoding="UTF-8"?>
<svg width="17" height="16" viewBox="0 0 17 16" fill="none" xmlns="http://www.w3.org/2000/svg">
    <path d="M14.3333 9.33309C14.3333 8.16642 14.0382 7.12753 13.4479 6.21642C12.8576 5.30531 12.2083 4.53864 11.5 3.91642C10.7916 3.2942 10.1423 2.8192 9.55206 2.49142L8.66665 1.99976V4.19976C8.66665 4.61087 8.51908 4.93587 8.22394 5.17476C7.9288 5.41365 7.59824 5.53309 7.23227 5.53309C7.03158 5.53309 6.83974 5.4942 6.65675 5.41642C6.47376 5.33864 6.30554 5.21087 6.15206 5.03309L5.83331 4.66642C4.98331 5.13309 4.29859 5.78031 3.77915 6.60809C3.2597 7.43587 2.99998 8.3442 2.99998 9.33309C2.99998 10.3886 3.28922 11.3414 3.86769 12.1914C4.44616 13.0414 5.20762 13.6831 6.15206 14.1164C5.88054 13.8275 5.67099 13.5053 5.52342 13.1498C5.37585 12.7942 5.30206 12.422 5.30206 12.0331C5.30206 11.6109 5.3847 11.2136 5.54998 10.8414C5.71526 10.4692 5.95727 10.1331 6.27602 9.83309L8.66665 7.63309L11.0396 9.83309C11.3701 10.1331 11.618 10.4692 11.7833 10.8414C11.9486 11.2136 12.0312 11.6109 12.0312 12.0331C12.0312 12.422 11.9574 12.7942 11.8099 13.1498C11.6623 13.5053 11.4528 13.8275 11.1812 14.1164C12.1257 13.6831 12.8871 13.0414 13.4656 12.1914C14.0441 11.3414 14.3333 10.3886 14.3333 9.33309ZM8.66665 9.03309L7.03748 10.5331C6.82498 10.7331 6.6597 10.9609 6.54165 11.2164C6.42359 11.472 6.36456 11.7442 6.36456 12.0331C6.36456 12.622 6.58887 13.1248 7.03748 13.5414C7.48609 13.9581 8.02915 14.1664 8.66665 14.1664C9.30415 14.1664 9.8472 13.9581 10.2958 13.5414C10.7444 13.1248 10.9687 12.622 10.9687 12.0331C10.9687 11.7442 10.9127 11.472 10.8005 11.2164C10.6883 10.9609 10.5201 10.7331 10.2958 10.5331L8.66665 9.03309Z" fill="white" />
</svg>
