<?xml version="1.0" encoding="UTF-8"?>
<svg width="80" height="80" viewBox="0 0 80 80" fill="none" xmlns="http://www.w3.org/2000/svg">
    <path fill-rule="evenodd" clip-rule="evenodd" d="M56.4139 5.03603C56.381 5.08439 56.2846 8.48393 56.1993 12.5906L56.0445 20.0573L51.9265 22.2491C49.6615 23.4546 47.7301 24.436 47.6345 24.4299C47.5389 24.4238 47.0496 23.5508 46.5475 22.4901C45.1623 19.5642 43.2612 18.7426 40.7521 19.9861C38.2622 21.2199 37.8382 22.996 39.3378 25.9083C39.8276 26.8591 40.3973 27.825 40.6039 28.0543C40.9172 28.4023 40.8546 28.8228 40.2245 30.5944C39.5738 32.4233 39.5241 32.7819 39.8637 33.1796C40.0883 33.4425 40.567 33.6054 40.9753 33.5579C41.5794 33.4873 41.7885 33.1946 42.2998 31.7029C42.6338 30.7287 43.1894 29.7095 43.5348 29.4376C44.5411 28.6463 57.0649 22.1432 57.2454 22.3183C57.5687 22.6324 56.6585 24.2095 55.7878 24.844C55.2997 25.2001 52.7111 26.7802 50.0357 28.3559C47.3604 29.9315 45.0742 31.3524 44.9551 31.5136C44.5806 32.0211 44.8616 32.9083 45.4808 33.1724L46.0762 33.4267L45.3689 35.6739C44.9798 36.9099 44.5188 38.0597 44.3442 38.2287C43.9909 38.5712 40.1487 40.0835 39.9996 39.9389C39.9475 39.8883 40.1206 39.0651 40.3842 38.1098C40.8866 36.2884 40.7261 35.5118 39.8105 35.3364C39.0145 35.1839 38.5297 36.0533 37.643 39.2252C36.9337 41.7631 36.7265 43.1664 36.5677 46.5112L36.3709 50.6537L34.0469 55.4427L31.7232 60.2317L29.3932 60.3515C25.7219 60.5399 24.43 61.7548 24.4277 65.0209L24.4266 66.8276H18.5837C12.7489 66.8276 12.74 66.8284 11.966 67.5224C10.835 68.5367 10.4063 69.756 10.4063 71.9607V73.9152H9.01058C7.46118 73.9152 6.87374 74.3418 7.02225 75.3591L7.11581 75.9998H39.5607C70.1494 75.9998 72.0236 75.972 72.3214 75.5134C72.9006 74.6214 72.2038 74.0641 70.3929 73.9708L68.7774 73.8874L68.7711 60.3515C68.7651 47.6552 68.7311 46.7433 68.2215 45.6526C67.3942 43.883 66.6145 43.6192 62.2107 43.6192H58.4766V34.5749C58.4766 26.3032 58.5221 25.4424 59.0103 24.4994C59.3036 23.9324 59.6312 23.001 59.7376 22.4301C59.97 21.1874 59.4976 19.2801 58.9027 19.0583C58.6549 18.9661 58.4766 18.5469 58.4766 18.0569V17.2145H65.3372H72.1978L72.6574 16.5332C73.3095 15.5665 72.9959 14.9309 71.061 13.296L69.3749 11.8715L71.0876 10.4432C73.1756 8.70212 73.4677 7.92943 72.3815 7.02194C71.6196 6.38517 71.5 6.37461 65.1095 6.37461C58.646 6.37461 58.6108 6.37127 58.3298 5.74923C58.1553 5.36261 57.747 5.09023 57.2606 5.03603C56.8279 4.98767 56.4468 4.98767 56.4139 5.03603ZM67.9785 10.0679C66.3459 11.6842 66.3748 12.3913 68.1336 13.8558L69.4927 14.9873L63.9847 14.9892L58.4766 14.9909V11.9335V8.87611H63.8296H69.1826L67.9785 10.0679ZM44.1671 23.0513C45.3586 25.0322 45.3869 25.2298 44.5909 26.0031C43.4552 27.1062 42.4812 26.8305 41.5299 25.1359C40.5184 23.3342 40.5395 22.8826 41.6663 22.2105C42.9199 21.4626 43.2853 21.5854 44.1671 23.0513ZM56.1876 35.5588C56.1876 43.5567 56.183 43.6192 55.5878 43.6192C54.7226 43.6192 53.4773 44.4074 52.936 45.298C52.562 45.9128 52.4678 46.8589 52.4678 50.0058C52.4678 53.6069 52.4249 53.9359 51.9671 53.8503C51.3642 53.7375 51.3654 53.7892 51.8687 49.5088C52.3554 45.3708 52.376 45.4292 49.0878 41.6302L46.7875 38.9728L48.0182 35.2506L49.2491 31.5286L52.6329 29.5135C54.4942 28.4053 56.0554 27.4984 56.1023 27.4984C56.1492 27.4984 56.1876 31.1256 56.1876 35.5588ZM43.7494 41.7431C43.6696 42.0872 43.2678 44.182 42.8569 46.3986C42.446 48.6153 41.9725 50.679 41.8045 50.9847C41.2354 52.0212 34.6798 60.3423 34.5399 60.2061C34.4632 60.1319 35.3674 58.089 36.5489 55.6667L38.6971 51.2627L38.9298 47.108L39.1627 42.9535L41.3087 42.0438C43.8784 40.9543 43.9342 40.9476 43.7494 41.7431ZM48.448 44.4314C49.7874 46.0231 49.9336 46.3242 49.7971 47.2108C49.7132 47.7578 49.4912 49.4246 49.3041 50.9152C48.8131 54.8243 48.4071 54.4974 48.0096 49.873C47.7913 47.3312 47.4024 46.4075 46.312 45.8405C45.5955 45.4681 45.556 45.3516 45.7257 44.1101C45.8256 43.3777 45.9847 42.5827 46.0794 42.3434C46.2799 41.8354 46.2176 41.7803 48.448 44.4314ZM65.8589 46.1763C66.1167 46.4267 66.2022 49.9255 66.2022 60.2125V73.9152H60.4796H54.7569V70.6137C54.7569 66.993 54.542 66.4715 53.1869 66.8017L52.4678 66.9771V70.4461V73.9152H46.6021H40.7364V65.5585C40.7364 60.3298 40.8471 57.0008 41.0326 56.6643C41.309 56.1626 41.6812 56.1267 46.5953 56.1267C50.4944 56.1267 51.9219 56.217 52.0933 56.4741C52.2206 56.6654 52.3892 58.3225 52.4678 60.1569C52.606 63.3805 52.6329 63.4953 53.2704 63.5831C54.7329 63.7844 54.7569 63.6426 54.7569 54.7587C54.7569 48.7134 54.8488 46.4206 55.1003 46.1763C55.3412 45.9423 56.9441 45.8428 60.4796 45.8428C64.015 45.8428 65.6179 45.9423 65.8589 46.1763ZM45.7517 50.9152L45.9549 53.6252H44.4902C43.6847 53.6252 43.0255 53.5682 43.0255 53.4985C43.0255 53.429 43.3474 52.9112 43.7408 52.348C44.1342 51.7849 44.4561 51.1601 44.4561 50.9597C44.4561 50.0361 45.1122 47.76 45.318 47.9701C45.4447 48.0994 45.6399 49.4246 45.7517 50.9152ZM38.4473 60.0179C38.4473 60.3323 38.2565 60.5738 38.0081 60.5738C37.6576 60.5738 37.6307 60.4615 37.8751 60.0179C38.0436 59.7122 38.2413 59.462 38.3143 59.462C38.3875 59.462 38.4473 59.7122 38.4473 60.0179ZM38.1512 63.3349C38.324 63.6487 38.4473 65.964 38.4473 68.8938V73.9152H32.5642H26.6813L26.77 68.6237C26.8429 64.2886 26.9365 63.2846 27.2882 63.0689C27.5242 62.9244 29.9984 62.8041 32.7862 62.8015C37.5071 62.7977 37.8754 62.8344 38.1512 63.3349ZM23.9773 69.3488C24.3052 69.6676 24.4268 70.3441 24.4268 71.8503V73.9152H18.7042H12.9815V71.7055C12.9815 69.8941 13.072 69.4447 13.4823 69.2123C13.7661 69.0517 16.0489 68.9255 18.7554 68.9205C22.7203 68.9136 23.6036 68.9861 23.9773 69.3488Z" fill="url(#paint0_linear_1_3057)"/>
    <defs>
        <linearGradient id="paint0_linear_1_3057" x1="40" y1="4.99976" x2="40" y2="75.9998" gradientUnits="userSpaceOnUse">
            <stop stop-color="#FF3200"/>
            <stop offset="1" stop-color="#DA2B00"/>
        </linearGradient>
    </defs>
</svg>
