<?xml version="1.0" encoding="UTF-8"?>
<svg width="80" height="80" viewBox="0 0 80 80" fill="none" xmlns="http://www.w3.org/2000/svg">
    <path fill-rule="evenodd" clip-rule="evenodd" d="M24.0595 6.2291C22.0251 6.84824 20.0828 8.5773 19.1145 10.6311C18.5907 11.7418 18.4876 12.3849 18.4855 14.5505L18.4829 17.1413H13.6752C8.30356 17.1413 7.40944 17.3539 6.49912 18.8472C6.02523 19.6245 6 20.4865 6 36.0077C6 51.992 6.01195 52.3691 6.54242 53.2393C6.86941 53.7758 7.49152 54.2889 8.10938 54.5318C9.02528 54.8916 9.15279 55.0566 9.30632 56.0812C9.67104 58.5142 11.047 59.3913 14.4984 59.3913C17.963 59.3913 19.3254 58.5155 19.6949 56.0512L19.8713 54.874H27.1635C31.6821 54.874 34.6511 54.7693 34.9696 54.599C35.5439 54.2916 35.6525 53.2895 35.1646 52.8014C34.9316 52.5684 32.8212 52.4825 27.3284 52.4825H19.811V44.6777V36.8729L20.8544 36.706C21.5331 36.5973 22.0899 36.2944 22.4482 35.8389C22.9511 35.1993 22.9986 34.7843 22.9986 31.0331V26.9271L21.4048 25.2669L19.811 23.6064V21.7024V19.7985H38.1303C59.3682 19.7985 56.9995 19.3572 56.9995 23.3151C56.9995 25.9593 57.1908 26.4416 58.2387 26.4416C59.1554 26.4416 59.3902 25.6676 59.3902 22.6455C59.3902 20.2096 59.3177 19.7688 58.7872 18.9743C57.7194 17.3751 56.8758 17.1421 52.1517 17.1418L47.968 17.1413V14.7971C47.968 11.5877 47.4655 10.2219 45.597 8.35277C43.2656 6.02051 43.0326 5.97667 33.1118 6.00377C28.4991 6.01626 24.4256 6.11777 24.0595 6.2291ZM42.2593 8.868C43.5984 9.47651 44.9332 10.9784 45.2958 12.2847C45.449 12.8366 45.575 14.1554 45.5758 15.2148L45.5773 17.1413H43.9836H42.3898V15.1279C42.3898 13.257 42.3348 13.0595 41.6133 12.3378L40.8369 11.5611H33.2254H25.614L24.8376 12.3378C24.1161 13.0595 24.0611 13.257 24.0611 15.1279V17.1413H22.4673H20.8735V15.007C20.8735 11.7888 21.8673 9.95375 24.194 8.87624C25.1537 8.43169 26.0284 8.38412 33.2254 8.38412C40.3664 8.38412 41.3049 8.43434 42.2593 8.868ZM39.9991 15.547V17.1413H33.2254H26.4518V15.547V13.9526H33.2254H39.9991V15.547ZM17.1547 21.7024V23.6064L15.5811 25.2456C13.7137 27.191 13.6082 27.5779 13.7397 31.9931C13.8271 34.9267 13.8837 35.2203 14.483 35.8586C14.8615 36.2617 15.5529 36.6164 16.1432 36.711L17.1547 36.8729V44.6777V52.4825H13.2855C11.1264 52.4825 9.18945 52.3608 8.90256 52.2075C8.40344 51.9402 8.38883 51.4805 8.38883 36.0425C8.38883 27.3034 8.46852 20.073 8.56601 19.9758C8.66323 19.8783 10.6355 19.7985 12.9489 19.7985H17.1547V21.7024ZM19.6006 26.8942L20.6079 27.8781V31.0129V34.1476H18.4829H16.3578V31.0365V27.9254L17.3414 26.9178C17.8825 26.3635 18.3854 25.9102 18.4592 25.9102C18.5328 25.9102 19.0465 26.3529 19.6006 26.8942ZM39.4883 29.0484C38.9883 29.3178 38.3606 29.946 38.0937 30.444C37.636 31.2975 37.6084 32.4828 37.6084 51.2249C37.6084 73.126 37.5571 72.4338 39.2526 73.4678C40.1061 73.9883 40.5519 74.004 54.476 73.9992C67.7855 73.9947 68.8969 73.9596 69.8827 73.51C71.481 72.7811 72.5547 71.7544 73.3152 70.2275L74 68.8529L73.9942 51.3011C73.9875 31.6743 74.0781 32.6489 72.0792 30.6496C70.0548 28.6245 70.7766 28.7088 54.7417 28.6291C41.2281 28.5621 40.3449 28.5865 39.4883 29.0484ZM69.5318 31.6998C70.1056 32.0566 70.7362 32.777 71.0592 33.4442C71.5979 34.5579 71.6093 34.9272 71.6051 51.4372L71.6005 68.2931L71.0018 69.3507C70.6661 69.9435 69.9388 70.671 69.3461 71.0069L68.2889 71.6059L54.4189 71.6104C40.9758 71.6143 40.5407 71.5989 40.274 71.1007C40.0918 70.7598 39.9991 64.0527 39.9991 51.1903C39.9991 33.7387 40.0418 31.7513 40.4254 31.3676C40.8079 30.985 42.2774 30.9488 54.7031 31.0163L68.5545 31.0918L69.5318 31.6998ZM52.7792 33.4876C47.8682 34.8675 44.2449 38.8833 43.4565 43.8202C42.8283 47.7537 44.34 52.1126 47.2689 54.8135C52.4099 59.554 60.1704 59.2983 64.9074 54.2328C67.5026 51.4576 68.6058 48.4364 68.35 44.8058C68.2716 43.6937 67.9449 42.0872 67.624 41.236C66.3838 37.9459 63.0382 34.7184 59.8516 33.7381C57.8339 33.1177 54.5148 32.9999 52.7792 33.4876ZM51.035 37.5358C50.1895 38.8142 49.3342 41.3035 49.123 43.1022L48.9575 44.5108H47.3791H45.8007L45.979 43.6472C46.4712 41.2608 47.9744 38.9856 50.0817 37.4383C51.6423 36.2925 51.8439 36.3133 51.035 37.5358ZM62.9933 38.6014C64.2481 39.8452 65.431 42.0207 65.6769 43.5364L65.835 44.5108H64.3443C63.0079 44.5108 62.8424 44.4489 62.7444 43.9129C62.6843 43.584 62.5053 42.6098 62.3467 41.7481C62.1881 40.8864 61.6393 39.3561 61.1272 38.3476L60.1962 36.5144L61.0236 36.9916C61.4789 37.2544 62.3653 37.9785 62.9933 38.6014ZM59.3738 40.4088C59.6617 41.1786 59.9778 42.4167 60.0764 43.1596L60.2557 44.5108H58.6276H56.9995L57.0107 40.7243L57.0216 36.9377L57.9359 37.9732C58.4387 38.5429 59.0855 39.6388 59.3738 40.4088ZM54.6088 40.9236V44.5108H53.0031H51.3971L51.5636 43.5144C52.0213 40.7771 53.566 37.3363 54.3374 37.3363C54.509 37.3363 54.6088 38.6577 54.6088 40.9236ZM49.2146 48.8193C49.4131 50.0799 49.8779 51.4438 50.5718 52.8025L51.6271 54.8687L50.8026 54.4064C48.6783 53.2149 46.4563 50.1588 45.9747 47.7659L45.8007 46.9023H47.3568H48.9129L49.2146 48.8193ZM54.5977 50.556L54.5868 54.2097L53.6794 53.1819C52.7964 52.182 51.9108 49.9698 51.5639 47.8988L51.3971 46.9023H53.0031H54.6088L54.5977 50.556ZM60.0766 48.2511C59.7685 50.5744 58.0703 54.0769 57.2516 54.0769C57.105 54.0769 56.9995 52.5758 56.9995 50.4896V46.9023H58.6276H60.2557L60.0766 48.2511ZM65.7654 47.4237C65.7654 48.431 64.6888 50.809 63.7203 51.9407C62.7972 53.0196 60.8539 54.6083 60.4575 54.6083C60.3579 54.6083 60.665 53.8359 61.1399 52.8917C61.8906 51.4 62.1666 50.4691 62.7385 47.5002C62.8411 46.9669 63.0108 46.9023 64.3095 46.9023C65.5789 46.9023 65.7654 46.969 65.7654 47.4237ZM17.1547 55.6619C17.1547 56.6929 16.5453 56.9998 14.4984 56.9998C12.4514 56.9998 11.842 56.6929 11.842 55.6619V54.874H14.4984H17.1547V55.6619ZM44.8336 61.836C44.6583 62.0114 44.5148 62.406 44.5148 62.7129C44.5148 63.9001 44.5964 63.9086 55.8385 63.9086C65.1988 63.9086 66.5761 63.8568 66.9419 63.4912C67.4312 63.0014 67.4577 62.7294 67.0843 62.031C66.8192 61.5357 66.4146 61.5171 55.9808 61.5171C47.9128 61.5171 45.0711 61.5984 44.8336 61.836ZM50.4119 66.3533C49.9706 66.7947 50.0134 67.511 50.5104 68.0085C50.8602 68.3582 51.7344 68.4259 55.9027 68.4259C61.1235 68.4259 61.5153 68.3425 61.5153 67.2302C61.5153 66.1155 61.1285 66.0344 55.8042 66.0344C52.2123 66.0344 50.6376 66.1274 50.4119 66.3533Z" fill="url(#paint0_linear_1_3073)"/>
    <defs>
        <linearGradient id="paint0_linear_1_3073" x1="40" y1="5.99976" x2="40" y2="73.9998" gradientUnits="userSpaceOnUse">
            <stop stop-color="#FF3200"/>
            <stop offset="1" stop-color="#DA2B00"/>
        </linearGradient>
    </defs>
</svg>
