<?xml version="1.0" encoding="UTF-8"?>
<svg width="80" height="80" viewBox="0 0 80 80" fill="none" xmlns="http://www.w3.org/2000/svg">
    <path fill-rule="evenodd" clip-rule="evenodd" d="M40 6C38.6667 6 37.4583 6.34375 36.375 7.03125C35.2917 7.71875 34.4167 8.625 33.75 9.75L6.75 55.75C6.08333 56.875 5.75 58.0938 5.75 59.4062C5.75 60.7188 6.08333 61.9375 6.75 63.0625C7.41667 64.1875 8.29167 65.0938 9.375 65.7812C10.4583 66.4688 11.6667 66.8125 13 66.8125H67C68.3333 66.8125 69.5417 66.4688 70.625 65.7812C71.7083 65.0938 72.5833 64.1875 73.25 63.0625C73.9167 61.9375 74.25 60.7188 74.25 59.4062C74.25 58.0938 73.9167 56.875 73.25 55.75L46.25 9.75C45.5833 8.625 44.7083 7.71875 43.625 7.03125C42.5417 6.34375 41.3333 6 40 6ZM40 11.4062C40.4444 11.4062 40.8611 11.5312 41.25 11.7812C41.6389 12.0312 41.9444 12.3438 42.1667 12.7188L69.1667 58.7188C69.3889 59.0938 69.5 59.5104 69.5 59.9688C69.5 60.4271 69.3889 60.8438 69.1667 61.2188C68.9444 61.5938 68.6389 61.9062 68.25 62.1562C67.8611 62.4062 67.4444 62.5312 67 62.5312H13C12.5556 62.5312 12.1389 62.4062 11.75 62.1562C11.3611 61.9062 11.0556 61.5938 10.8333 61.2188C10.6111 60.8438 10.5 60.4271 10.5 59.9688C10.5 59.5104 10.6111 59.0938 10.8333 58.7188L37.8333 12.7188C38.0556 12.3438 38.3611 12.0312 38.75 11.7812C39.1389 11.5312 39.5556 11.4062 40 11.4062ZM40 25.4062C39.1111 25.4062 38.3472 25.7188 37.7083 26.3438C37.0694 26.9688 36.75 27.7188 36.75 28.5938C36.75 29.4688 37.0694 30.2188 37.7083 30.8438C38.3472 31.4688 39.1111 31.7812 40 31.7812C40.8889 31.7812 41.6528 31.4688 42.2917 30.8438C42.9306 30.2188 43.25 29.4688 43.25 28.5938C43.25 27.7188 42.9306 26.9688 42.2917 26.3438C41.6528 25.7188 40.8889 25.4062 40 25.4062ZM38.5 35.4062V51.4062H41.5V35.4062H38.5ZM38.5 54.4062V57.4062H41.5V54.4062H38.5Z" fill="url(#paint0_linear_1_3080)"/>
    <defs>
        <linearGradient id="paint0_linear_1_3080" x1="40" y1="6" x2="40" y2="66.8125" gradientUnits="userSpaceOnUse">
            <stop stop-color="#FF3200"/>
            <stop offset="1" stop-color="#DA2B00"/>
        </linearGradient>
    </defs>
</svg>
