<?xml version="1.0" encoding="UTF-8"?>
<svg width="80" height="80" viewBox="0 0 80 80" fill="none" xmlns="http://www.w3.org/2000/svg">
    <path fill-rule="evenodd" clip-rule="evenodd" d="M17.168 5.08253C15.2405 5.56569 13.8528 6.17135 13.0415 6.88366C12.1786 7.64135 12.1094 7.8221 12.1094 9.31616C12.1094 10.8395 12.7643 15.9525 13.0968 17.0263C13.2105 17.393 13.473 17.4988 14.115 17.4364L14.9805 17.3525L14.9293 15.165C14.9012 13.9619 14.817 12.6636 14.742 12.2797L14.6056 11.5819L16.4338 12.059C17.4392 12.3212 18.6 12.543 19.0137 12.5515L19.7656 12.5673V24.7509V36.9347L18.6052 36.8505L17.4447 36.7666L16.6156 29.247C16.1598 25.1113 15.6903 21.5738 15.5725 21.3857C15.2525 20.8752 14.0803 20.9733 13.7793 21.5361C13.6103 21.8519 13.6114 22.7972 13.7825 24.1756C13.9291 25.3566 13.951 26.4117 13.8312 26.5206C13.7114 26.6294 12.0137 27.3032 10.0586 28.0179C6.04945 29.4833 5 30.2705 5 31.8121C5 33.4413 5.72543 33.9696 10.303 35.675C14.4927 37.236 14.5211 37.2522 14.0144 37.7963C12.8241 39.0738 13.033 41.1462 14.4716 42.3321L15.4243 43.1171L13.4924 56.6217C12.4301 64.0491 11.5614 70.5968 11.5617 71.1724C11.5628 72.5819 12.6311 73.627 14.7349 74.2764C16.0223 74.6737 17.2582 74.7733 20.8594 74.7694C25.0413 74.7651 25.4892 74.715 26.9868 74.0858C29.9153 72.8554 29.8385 73.3801 28.5941 63.1177C28.004 58.2494 27.5485 54.2272 27.5818 54.179C27.6152 54.1309 28.4793 54.3499 29.5019 54.6658C32.5166 55.5971 35.7398 56.0439 39.4408 56.0439C43.783 56.0439 47.1786 55.4836 51.2109 54.1019C52.9404 53.5094 54.5707 52.9513 54.834 52.8616C55.2734 52.7121 55.3125 52.9877 55.3125 56.2397V59.7804L54.3117 60.4413C52.5885 61.5796 52.3047 62.4735 52.3047 66.7624C52.3047 70.1946 52.3501 70.5413 52.8335 70.7999C53.5934 71.2066 59.766 71.1685 60.1797 70.7548C60.4039 70.5306 60.5075 69.2096 60.5067 66.5849C60.5056 62.2424 60.2379 61.4336 58.4546 60.3812L57.5 59.8179L57.5052 55.675L57.5104 51.5322L59.2825 50.4958L61.0547 49.4595L61.0555 44.2068L61.0566 38.9541L67.4909 36.5243C74.408 33.9119 75 33.5405 75 31.8121C75 29.9003 74.819 29.8125 57.3633 23.2607C44.6536 18.49 40.9587 17.2062 39.9497 17.2106C39.0337 17.2144 37.247 17.7583 33.6748 19.1214C30.9282 20.1694 28.6584 20.9999 28.6305 20.9671C28.6029 20.9342 28.9313 18.5078 29.3603 15.5751C30.3747 8.6394 30.3766 7.95909 29.3863 7.00999C27.9562 5.64007 25.8225 5.09784 21.543 5.01745C19.4375 4.9778 17.4688 5.00706 17.168 5.08253ZM26.3281 7.82757C28.9755 8.7105 28.0625 9.62542 23.9902 10.1701C20.5572 10.6295 14.692 9.80999 14.3696 8.82616C13.8812 7.33565 22.6564 6.60284 26.3281 7.82757ZM27.4219 12.1782C27.4219 12.7161 24.4562 35.1221 24.2486 36.1513C24.1144 36.818 23.9755 36.9033 23.0253 36.9033H21.9531V24.7353V12.5673L23.1152 12.5411C23.7545 12.5266 24.8926 12.3568 25.6445 12.1635C27.4839 11.6907 27.4219 11.6901 27.4219 12.1782ZM47.5195 21.9815C53.7851 24.3385 54.2926 24.5773 53.6035 24.8425C51.1727 25.7779 39.5332 30.7392 39.248 30.9615C38.7422 31.3558 38.8335 32.47 39.3963 32.7714C39.7736 32.9732 41.893 32.1908 48.6168 29.3673L57.3474 25.7011L65.08 28.6028C69.3327 30.1986 72.812 31.6426 72.8114 31.8113C72.8106 31.98 68.2272 33.8427 62.6259 35.9503C53.0613 39.549 52.4365 39.8252 52.3591 40.4853C52.3132 40.8793 52.4666 41.3455 52.708 41.5462C53.0706 41.847 53.5663 41.7453 55.8255 40.9075C57.3029 40.3595 58.5948 39.9111 58.6966 39.9111C58.7983 39.9111 58.8475 41.7877 58.8059 44.081L58.7305 48.2509L55.9961 49.6638C50.4587 52.5248 45.6859 53.6743 39.3164 53.6808C34.7615 53.6855 31.9177 53.2447 28.6523 52.0274L27.2852 51.518L26.9677 49.3376C26.793 48.1383 26.5636 46.2242 26.4577 45.0842L26.2655 43.011L27.0979 42.6665C27.8703 42.3463 28.3245 42.471 33.4066 44.3976C36.9361 45.7356 39.2748 46.4736 39.9863 46.4736C41.0601 46.4736 47.9784 44.0733 48.5488 43.503C48.9111 43.1407 48.5846 41.9252 48.0721 41.7283C47.8471 41.6422 46.0487 42.1823 44.0753 42.9287C42.1022 43.6752 40.2726 44.2861 40.0098 44.2861C39.7468 44.2861 37.699 43.597 35.4593 42.7551C33.2193 41.9132 30.7537 40.9862 29.9799 40.6956C28.7445 40.2313 28.552 40.0533 28.3983 39.2351C28.292 38.6683 27.8848 38.0183 27.3587 37.5757L26.4936 36.8478L27.3505 30.285C27.8216 26.6753 28.2539 23.6755 28.3108 23.6186C28.6611 23.268 39.1928 19.453 39.8633 19.4336C40.3145 19.4205 43.7598 20.567 47.5195 21.9815ZM14.3939 29.8623C14.4809 30.3509 14.6348 31.7077 14.7363 32.8774L14.9206 35.0037L12.6262 34.1492C11.3645 33.6792 9.62465 33.036 8.75977 32.7202C7.89488 32.4041 7.1875 32.0016 7.1875 31.8253C7.1875 31.5466 13.0828 29.0753 13.9247 29.0012C14.0959 28.9859 14.307 29.3736 14.3939 29.8623ZM26.1537 39.5009C26.2401 39.7265 26.2401 40.0957 26.1537 40.3212C26.0213 40.6658 25.1731 40.7314 20.8594 40.7314C16.3676 40.7314 15.7012 40.6756 15.552 40.2865C15.1467 39.231 15.786 39.0908 21.0002 39.0908C25.1887 39.0908 26.0216 39.1569 26.1537 39.5009ZM19.7656 57.8524V72.7857L18.4668 72.6038C16.9596 72.3927 14.6009 71.7439 14.0598 71.3914C13.7503 71.1899 14.0325 68.7153 15.6966 57.0335L17.7072 42.9189H18.7364H19.7656V57.8524ZM23.9913 43.8076C24.3047 45.6787 27.1484 69.9214 27.1484 70.7215C27.1484 71.3851 26.989 71.6271 26.3965 71.8636C25.4367 72.2464 23.3657 72.7083 22.5684 72.717L21.9531 72.7236V57.8212V42.9189H22.8979C23.7507 42.9189 23.8568 43.0053 23.9913 43.8076ZM57.7734 62.6064C58.2509 63.0838 58.3203 63.5178 58.3203 66.0244V68.8955H56.4062H54.4922V66.198C54.4922 63.8831 54.5726 63.3983 55.059 62.78C55.7522 61.8985 56.9865 61.8194 57.7734 62.6064Z" fill="url(#paint0_linear_1_3065)"/>
    <defs>
        <linearGradient id="paint0_linear_1_3065" x1="40" y1="4.99976" x2="40" y2="74.7695" gradientUnits="userSpaceOnUse">
            <stop stop-color="#FF3200"/>
            <stop offset="1" stop-color="#DA2B00"/>
        </linearGradient>
    </defs>
</svg>
