<?xml version="1.0" encoding="UTF-8"?>
<svg width="80" height="80" viewBox="0 0 80 80" fill="none" xmlns="http://www.w3.org/2000/svg">
    <path fill-rule="evenodd" clip-rule="evenodd" d="M40 6C39.0833 6 38.2708 6.21875 37.4583 6.65625C36.6458 7.09375 35.9375 7.71875 35.3333 8.53125L6 47.5312C4.66667 49.1562 4 50.9688 4 52.9688C4 54.9688 4.66667 56.7812 6 58.4062C7.33333 60.0312 9 61.2188 11 61.9688C13 62.7188 15.0417 62.7188 17.125 61.9688C19.2083 61.2188 20.9167 60.0312 22.25 58.4062L40 35.4062L57.75 58.4062C59.0833 60.0312 60.7917 61.2188 62.875 61.9688C64.9583 62.7188 67 62.7188 69 61.9688C71 61.2188 72.6667 60.0312 74 58.4062C75.3333 56.7812 76 54.9688 76 52.9688C76 50.9688 75.3333 49.1562 74 47.5312L44.6667 8.53125C44.0625 7.71875 43.3542 7.09375 42.5417 6.65625C41.7292 6.21875 40.9167 6 40 6ZM40 11.4062L69.3333 50.4062C69.7778 51 70 51.6875 70 52.4688C70 53.25 69.7778 53.9375 69.3333 54.5312C68.8889 55.125 68.3333 55.5625 67.6667 55.8438C67 56.125 66.3333 56.125 65.6667 55.8438C65 55.5625 64.4444 55.125 64 54.5312L43.3333 27.4062C42.4444 26.2812 41.3333 25.7188 40 25.7188C38.6667 25.7188 37.5556 26.2812 36.6667 27.4062L16 54.5312C15.5556 55.125 15 55.5625 14.3333 55.8438C13.6667 56.125 13 56.125 12.3333 55.8438C11.6667 55.5625 11.1111 55.125 10.6667 54.5312C10.2222 53.9375 10 53.25 10 52.4688C10 51.6875 10.2222 51 10.6667 50.4062L40 11.4062ZM40 31.4062L56.6667 52.9688H23.3333L40 31.4062Z" fill="url(#paint0_linear_1_3076)"/>
    <defs>
        <linearGradient id="paint0_linear_1_3076" x1="40" y1="6" x2="40" y2="62.5" gradientUnits="userSpaceOnUse">
            <stop stop-color="#FF3200"/>
            <stop offset="1" stop-color="#DA2B00"/>
        </linearGradient>
    </defs>
</svg>
