<svg width="80" height="80" viewBox="0 0 80 80" fill="none" xmlns="http://www.w3.org/2000/svg">
<g id="Frame 482779">
<path id="image 62 (Traced)" fill-rule="evenodd" clip-rule="evenodd" d="M37.5733 7.13814C28.227 8.24823 19.7011 15.6917 17.6204 24.5584L17.1592 26.5233H14.0823C11.2744 26.5233 10.9795 26.5717 10.7097 27.0758C10.5471 27.3795 10.5033 27.7794 10.6127 27.9642C11.5795 29.6007 17.3497 37.7128 17.6146 37.8076C17.8027 37.8752 18.1605 37.8257 18.4095 37.6977C18.9633 37.4137 25.4738 28.0568 25.4738 27.5451C25.4738 26.7286 24.8038 26.5233 22.1389 26.5233C19.1208 26.5233 19.2195 26.6203 19.8969 24.3179C22.2204 16.418 29.83 10.1464 38.1041 9.31213C44.0728 8.71047 50.0929 10.9976 54.9406 15.7086C56.1879 16.9209 57.255 17.9548 57.3119 18.0059C57.3685 18.0573 57.6703 18.0182 57.9824 17.9192C59.5318 17.4275 57.793 14.7994 54.0393 11.9598C49.0848 8.21188 43.1549 6.47526 37.5733 7.13814ZM39.0242 15.4719C38.7173 15.7789 38.5948 16.4365 38.5948 17.776C38.5948 19.6517 38.9699 20.5095 39.7896 20.5095C40.5277 20.5095 40.7816 19.8097 40.7816 17.776C40.7816 15.1999 40.139 14.3574 39.0242 15.4719ZM29.0821 19.4708C28.4665 20.0864 28.7538 20.6992 30.3876 22.2579C31.8028 23.6077 32.0953 23.7764 32.5745 23.52C33.5126 23.0178 33.2362 22.1013 31.6841 20.5686C30.214 19.1168 29.6668 18.8861 29.0821 19.4708ZM49.6656 19.6881C49.365 19.8021 48.5359 20.5188 47.8235 21.2809C46.4857 22.7117 46.3813 23.2756 47.3572 23.7977C48.1215 24.2069 51.1691 21.5436 51.1691 20.4669C51.1691 19.8398 50.3643 19.4229 49.6656 19.6881ZM36.7639 22.7078C34.7091 23.5219 32.8221 25.3323 31.9097 27.3658C30.43 30.6627 30.9978 34.1707 33.4907 37.1355C34.7192 38.5963 35.3028 40.4329 34.6539 40.7962C34.1432 41.0819 34.0823 42.1296 34.5492 42.5965C35.0117 43.059 44.9115 43.059 45.374 42.5965C45.8518 42.1187 45.7753 41.0791 45.24 40.7798C44.5534 40.3955 45.1299 38.7581 46.6339 36.8208C49.5678 33.0425 49.4721 28.3359 46.3922 24.9269C44.1592 22.455 39.8875 21.4706 36.7639 22.7078ZM61.4844 23.5514C61.0836 23.7756 55.6663 31.4144 54.7817 33.0023C54.5242 33.4649 54.5087 33.7773 54.7232 34.178C54.9851 34.6676 55.2965 34.7239 57.7392 34.7239C60.9092 34.7239 60.8032 34.5709 59.768 37.6551C56.9338 46.0976 48.7425 51.9786 39.8249 51.9731C34.2004 51.9698 28.744 49.5129 24.5321 45.087C23.5431 44.048 22.6225 43.1979 22.4863 43.1979C21.7904 43.1979 21.3735 43.5986 21.3735 44.2673C21.3735 44.8194 21.871 45.499 23.3553 46.9726C28.2355 51.8187 33.6176 54.169 39.8249 54.1643C46.3444 54.1597 52.3505 51.4617 57.012 46.444C59.4066 43.8662 61.5582 39.9185 62.3181 36.7077L62.7866 34.7278L65.8523 34.7258C68.6771 34.7242 68.9417 34.6794 69.2225 34.1548C69.571 33.5037 69.629 33.6043 65.3512 27.4445C63.8759 25.3203 62.5034 23.5186 62.3012 23.441C62.0989 23.3636 61.7315 23.4131 61.4844 23.5514ZM43.4039 25.3074C45.2655 26.4583 46.3307 28.2566 46.4729 30.4889C46.6098 32.6404 46.2323 33.803 44.8147 35.5965C43.694 37.0144 42.6951 39.181 42.6951 40.194C42.6951 40.7003 42.5079 40.7377 39.981 40.7377H37.2669L36.964 39.3026C36.7756 38.4107 36.2486 37.2984 35.5712 36.364C33.9683 34.1532 33.3576 32.7 33.3429 31.0626C33.3196 28.4824 34.9444 25.9621 37.3587 24.8332C39.0546 24.0402 41.6884 24.2468 43.4039 25.3074ZM64.397 29.8719L66.2303 32.5371H61.9668H57.7033L58.5841 31.2387C61.4223 27.0555 61.9021 26.4779 62.235 26.8448C62.4157 27.0438 63.3886 28.4062 64.397 29.8719ZM20.267 31.5809C19.1924 33.1595 18.2182 34.5102 18.102 34.5818C17.9858 34.6537 17.362 33.946 16.7156 33.0097C16.0691 32.0732 15.12 30.7226 14.6066 30.0086L13.6731 28.7101H17.947H22.2212L20.267 31.5809ZM36.1811 44.4963C35.9083 45.0269 36.0564 45.6879 36.5173 45.9957C36.6827 46.1061 38.2545 46.1982 40.0105 46.2007C42.5522 46.204 43.2902 46.1173 43.6325 45.7754C44.1406 45.2669 44.145 45.2306 43.779 44.5466C43.5215 44.0658 43.1762 44.018 39.9616 44.018C36.8716 44.018 36.3962 44.0781 36.1811 44.4963ZM10.7756 56.8178C7.45378 58.0036 5.19642 61.0834 5.01492 64.6783C4.82248 68.4892 6.49595 71.4091 9.80681 73.0388C11.4423 73.8442 11.9133 73.9497 13.8505 73.9461C16.4168 73.9415 17.9071 73.3797 19.7413 71.7259C20.8673 70.7104 22.4664 67.899 22.4667 66.9338C22.4672 65.6534 22.594 65.6129 26.5965 65.6129H30.3942V66.2933C30.3942 67.3996 31.3761 69.6575 32.4009 70.9081C32.9342 71.5589 34.1192 72.4848 35.0866 73.0063C36.6759 73.8633 37.0088 73.9393 39.1415 73.9311C41.7624 73.9212 43.1587 73.409 45.1056 71.7426C46.398 70.6364 47.8888 67.8386 47.8888 66.5196V65.6001L52.5968 65.6747L57.3048 65.7496L57.4986 66.8857C57.9368 69.4557 59.7926 71.879 62.2924 73.1457C63.6573 73.8373 64.1878 73.9502 66.0726 73.9502C68.0006 73.9502 68.4863 73.8414 70.0975 73.0482C75.4287 70.4237 76.6708 63.3296 72.5383 59.1076C70.5996 57.1272 69.027 56.4706 66.2036 56.4624C64.2029 56.4564 63.663 56.5622 62.3181 57.2226C60.4402 58.1449 58.8126 59.911 57.9718 61.9393L57.3556 63.4261H52.6725H47.9894L47.3386 61.8557C46.5519 59.9575 44.5914 57.9071 42.7692 57.0769C41.7687 56.6209 40.9241 56.4793 39.1415 56.469C36.9957 56.4567 36.6843 56.528 35.0685 57.4038C32.78 58.6443 31.4034 60.3394 30.565 62.9477C30.4281 63.3742 29.9825 63.4261 26.4612 63.4261H22.5109L22.0596 62.0675C21.4615 60.2672 19.5486 58.1763 17.6491 57.2469C15.6334 56.2607 12.8271 56.0854 10.7756 56.8178ZM17.1168 59.4365C19.5155 60.8424 20.87 63.802 20.3096 66.4141C19.1107 72.005 12.3977 73.7296 8.69071 69.3989C5.83717 66.0651 7.01286 61.1018 11.1227 59.1314C12.9414 58.2594 15.3146 58.3803 17.1168 59.4365ZM41.2983 58.9051C44.9402 60.1901 46.7752 64.338 45.2387 67.8118C43.3443 72.0941 38.1834 73.172 34.6831 70.0164C33.2272 68.7037 32.5931 67.2432 32.5931 65.2029C32.5931 62.846 33.4098 61.233 35.3146 59.8279C37.1242 58.4931 39.2161 58.1706 41.2983 58.9051ZM68.1698 58.8272C69.5735 59.2476 71.6187 61.0681 72.2507 62.4587C72.8726 63.8282 72.9155 66.3608 72.3401 67.7402C72.1069 68.2992 71.5228 69.1671 71.0416 69.669C67.725 73.1291 62.3416 72.353 60.2685 68.1158C57.6886 62.8425 62.5392 57.1403 68.1698 58.8272ZM14.6085 63.8588L12.9004 65.3825L12.1801 64.5263C11.2408 63.4102 10.0747 63.4428 9.94267 64.5889C9.87488 65.1799 10.148 65.6476 11.2113 66.7626C12.8315 68.461 12.7938 68.4689 15.7534 65.7988C17.783 63.9676 18.1452 63.314 17.4919 62.6607C16.9069 62.0757 16.3465 62.3083 14.6085 63.8588ZM36.736 62.6607C36.2642 63.1325 36.3314 63.8178 36.9211 64.5457C37.4238 65.1665 37.4232 65.1941 36.8945 65.9092C36.2828 66.7364 36.326 67.4668 37.0118 67.8987C37.3751 68.1275 37.6629 68.0564 38.3102 67.5781L39.1415 66.9633L39.9304 67.5466C40.9722 68.3169 41.8751 68.0649 41.8751 67.0037C41.8751 66.5861 41.6271 66.0199 41.324 65.7458L40.7732 65.2472L41.324 64.6608C42.6727 63.2252 41.4883 61.7075 39.9228 62.8649L39.1262 63.4537L38.4136 62.8933C37.5971 62.2509 37.2007 62.196 36.736 62.6607ZM66.9971 63.8837L65.3709 65.4347L64.476 64.5671C63.9834 64.0898 63.3959 63.6994 63.1699 63.6994C62.6582 63.6994 62.1032 64.2341 62.1032 64.7273C62.1032 65.216 64.8122 68.0731 65.2755 68.0731C65.4732 68.0731 66.6232 67.1814 67.8308 66.0913C69.5191 64.5676 70.027 63.9425 70.0286 63.387C70.0302 62.7249 69.6082 62.3327 68.8945 62.3327C68.7452 62.3327 67.8915 63.0305 66.9971 63.8837Z" fill="url(#paint0_linear_1_3081)"/>
</g>
<defs>
<linearGradient id="paint0_linear_1_3081" x1="40" y1="6.99976" x2="40" y2="73.9502" gradientUnits="userSpaceOnUse">
<stop stop-color="#FF3200"/>
<stop offset="1" stop-color="#DA2B00"/>
</linearGradient>
</defs>
</svg>
