<svg width="116" height="37" viewBox="0 0 116 37" fill="none" xmlns="http://www.w3.org/2000/svg">
<g id="Logos / ITIL ">
<path id="Vector" fill-rule="evenodd" clip-rule="evenodd" d="M38.6212 19.8191C38.4936 21.2234 38.366 22.5 38.1745 23.7766C36.4565 34.6036 41.2144 35.6622 42.7155 35.9962C42.8869 36.0343 43.0159 36.063 43.0879 36.0957C36.9622 36.6702 34.0269 33.7979 32.6231 30.4787C29.3688 34.1808 24.7745 36.5425 19.5422 36.7979H19.5421C18.585 36.7979 17.6279 36.7979 16.6707 36.6702C12.906 36.2234 9.20502 34.5638 6.33359 32.0106C3.52598 29.3936 1.48407 25.9468 0.782166 22.1808C0.0164515 18.2234 0.845975 14.0106 2.82407 10.4361C4.41931 7.49998 6.84407 5.07445 9.7155 3.41487C12.6507 1.69147 16.0326 0.797852 19.4784 0.797852C30.0707 0.797852 38.6212 9.28721 38.6212 19.8191ZM17.0536 32.2021C18.3936 32.6489 19.925 32.5213 21.2012 31.8191C20.4993 31.6915 19.7974 31.5 19.1593 31.2447C12.5231 28.7553 8.43931 22.1808 10.4812 15.7979C10.5131 15.7021 10.545 15.6223 10.5769 15.5425C10.6088 15.4627 10.6407 15.383 10.6726 15.2872C10.6439 15.2872 10.6281 15.3002 10.6194 15.3144C12.0981 10.2263 16.6202 6.4138 22.1584 5.96806H22.4774C21.0098 5.13828 19.2231 4.94679 17.5641 5.3936C11.3745 7.117 6.90788 12.8617 7.22693 19.5C7.48217 25.5 11.566 30.4787 17.0536 32.2021ZM10.6088 15.351L10.6194 15.3144C10.6088 15.3318 10.6088 15.351 10.6088 15.351ZM24.5831 29.4574C25.9231 28.2447 27.0079 26.9042 27.965 25.3723C29.3688 23.0744 30.3898 19.5638 30.0069 16.2447C29.4965 12.0957 25.0936 9.67019 21.265 11.5213C18.8403 12.6702 16.9898 14.9042 16.0964 17.6489C14.4374 22.8191 16.4793 27.4787 22.286 29.8404C23.0517 30.1596 23.945 30.0319 24.5831 29.4574ZM53.5526 7.56381H49.9155V30.0957H53.5526V7.56381ZM55.3393 7.56381H79.7145V10.9468H69.3774V30.0957H65.7403V10.9468H55.3393V7.56381ZM85.266 7.56381H81.6288V30.0957H85.266V7.56381ZM92.9231 26.9042H109.705V30.0957H89.286V7.69147H92.8593V26.9042H92.9231ZM112.257 12.5425C113.725 12.5425 114.81 11.4574 114.81 10.0532C114.81 8.64892 113.725 7.56381 112.257 7.56381C110.854 7.56381 109.705 8.64892 109.705 10.0532C109.705 11.4574 110.854 12.5425 112.257 12.5425ZM114.236 10.0532C114.236 11.1383 113.406 12.0319 112.385 12.0319C111.173 12.0319 110.343 11.1383 110.407 10.0532C110.407 8.96807 111.236 8.07445 112.321 8.07445C113.406 8.07445 114.236 8.96807 114.236 10.0532ZM113.47 11.3298C113.406 11.2021 113.342 11.0745 113.278 10.6915C113.215 10.3723 113.087 10.1808 112.832 10.1808V10.117C113.087 10.0532 113.342 9.86168 113.342 9.54254C113.342 8.96807 112.768 8.77658 112.257 8.77658C111.875 8.77658 111.556 8.84041 111.3 8.90424V11.3298H111.875V10.3723H112.13C112.449 10.3723 112.576 10.4362 112.64 10.6915C112.704 11.0106 112.768 11.2021 112.832 11.3298H113.47ZM112.194 9.15956C112.449 9.15956 112.768 9.22339 112.768 9.54254C112.768 9.86168 112.513 9.92551 112.194 9.92551H111.875V9.15956H112.194Z" fill="white"/>
</g>
</svg>
