<svg width="47" height="46" viewBox="0 0 47 46" fill="none" xmlns="http://www.w3.org/2000/svg">
<circle cx="23.5" cy="23" r="22.5" stroke="white" />
<path fill-rule="evenodd" clip-rule="evenodd" d="M35.5 34H30.7742V25.9509C30.7742 23.7441 29.9357 22.5109 28.189 22.5109C26.2888 22.5109 25.296 23.7942 25.296 25.9509V34H20.7417V18.6667H25.296V20.7321C25.296 20.7321 26.6654 18.1982 29.9192 18.1982C33.1715 18.1982 35.5 20.1843 35.5 24.2919V34ZM15.3084 16.6589C13.7571 16.6589 12.5 15.392 12.5 13.8294C12.5 12.2669 13.7571 11 15.3084 11C16.8597 11 18.116 12.2669 18.116 13.8294C18.116 15.392 16.8597 16.6589 15.3084 16.6589ZM12.9567 34H17.7057V18.6667H12.9567V34Z" fill="white" />
</svg>
