<?xml version="1.0" encoding="UTF-8"?>
<svg width="16" height="16" viewBox="0 0 16 16" fill="none" xmlns="http://www.w3.org/2000/svg">
    <path fill-rule="evenodd" clip-rule="evenodd" d="M2.76755 2.89946C2.07658 3.52366 1.26228 4.91413 0.957774 5.9897C0.44773 7.79125 0.608944 9.57806 1.43313 11.2579C1.95867 12.3292 2.82851 13.3801 3.18959 13.3801C3.39059 13.3801 3.72654 13.0613 3.72654 12.8706C3.72654 12.6747 3.6224 12.5038 3.25412 12.0949C2.55602 11.32 1.97761 10.0741 1.80785 8.97982C1.69319 8.24033 1.76678 7.02848 1.96772 6.34708C2.26235 5.34816 2.70282 4.54145 3.31598 3.8781C3.7861 3.3694 3.8347 3.14741 3.54014 2.85285C3.28779 2.6005 3.08481 2.61275 2.76755 2.89946ZM12.4583 2.85285C12.1546 3.15653 12.2061 3.35415 12.7443 3.95157C13.4244 4.70643 14.0152 5.96069 14.1817 7.0029C14.2666 7.53425 14.2666 8.51225 14.1817 9.04359C14.0152 10.0858 13.4244 11.3401 12.7443 12.0949C12.3761 12.5038 12.2719 12.6747 12.2719 12.8706C12.2719 13.0613 12.6079 13.3801 12.8089 13.3801C13.17 13.3801 14.0398 12.3292 14.5653 11.2579C15.5893 9.17082 15.5893 6.87568 14.5653 4.78857C14.0398 3.71733 13.17 2.66644 12.8089 2.66644C12.7125 2.66644 12.5678 2.74335 12.4583 2.85285ZM4.90179 4.6704C4.79408 4.71702 4.57081 4.9237 4.40558 5.12968C3.06721 6.79884 3.07435 9.27859 4.42222 10.9335C4.8773 11.4923 5.26822 11.5863 5.53759 11.2017C5.71251 10.9519 5.66392 10.7403 5.34723 10.3721C4.78304 9.71619 4.47452 8.90036 4.47095 8.05513C4.46712 7.15672 4.76264 6.35384 5.34717 5.67442C5.68158 5.28573 5.7208 5.05858 5.4962 4.81152C5.30903 4.60561 5.14265 4.56613 4.90179 4.6704ZM10.7004 4.64342C10.6252 4.6734 10.5176 4.76382 10.4613 4.8443C10.286 5.09461 10.3344 5.30601 10.6512 5.67442C11.8229 7.03651 11.8229 9.00999 10.6512 10.3721C10.3345 10.7403 10.286 10.9519 10.4609 11.2017C10.7302 11.5863 11.1212 11.4923 11.5762 10.9335C12.8987 9.30978 12.9369 6.9075 11.6669 5.22916C11.2598 4.69125 10.9901 4.52774 10.7004 4.64342ZM7.13844 6.01827C6.57847 6.2108 6.53249 6.36289 6.53249 8.02325C6.53249 9.52896 6.57152 9.71791 6.92723 9.93474C7.05739 10.0141 7.24832 10.0631 7.42529 10.0625C7.67368 10.0618 7.87061 9.96962 8.88955 9.37724C10.1654 8.63558 10.3588 8.45734 10.3588 8.02325C10.3588 7.58909 10.1654 7.41079 8.89471 6.67378C8.25005 6.29982 7.64167 5.98199 7.54282 5.96751C7.44391 5.95297 7.26197 5.97586 7.13844 6.01827Z" fill="#FF3200" />
</svg>
