<svg width="117" height="38" viewBox="0 0 117 38" fill="none" xmlns="http://www.w3.org/2000/svg">
<g id="Logos / ITIL ">
<path id="Vector" fill-rule="evenodd" clip-rule="evenodd" d="M38.786 20.0778C38.6573 21.56 38.5286 22.9076 38.3355 24.2551C36.6025 35.6836 41.4018 36.801 42.9159 37.1535C43.0888 37.1938 43.2189 37.2241 43.2915 37.2586C37.1125 37.865 34.1518 34.8331 32.7358 31.3295C29.4532 35.2373 24.8189 37.7303 19.5411 37.9998C18.5756 37.9998 17.6101 37.9998 16.6447 37.865C12.8472 37.3934 9.11403 35.6416 6.21763 32.9466C3.3856 30.1842 1.32594 26.5459 0.617932 22.5707C-0.15444 18.3934 0.682297 13.9466 2.67759 10.1735C4.2867 7.07422 6.73255 4.51394 9.62895 2.76217C12.5897 0.943018 16.001 -0.000244141 19.4767 -0.000244141C30.1612 -0.000244141 38.786 8.96075 38.786 20.0778ZM17.0309 33.1487C18.3825 33.6203 19.9272 33.4856 21.2145 32.7444C20.5065 32.6097 19.7985 32.4076 19.1549 32.1381C12.461 29.5104 8.34166 22.5707 10.4013 15.8331C10.4335 15.732 10.4657 15.6478 10.4979 15.5636C10.53 15.4794 10.5622 15.3951 10.5944 15.2941C10.5654 15.2941 10.5495 15.3078 10.5407 15.3228C12.0323 9.95205 16.5937 5.92771 22.18 5.4572H22.5018C21.0214 4.58132 19.2192 4.37919 17.5458 4.85082C11.3024 6.66997 6.79691 12.7338 7.11874 19.7409C7.37619 26.0742 11.4955 31.3295 17.0309 33.1487ZM10.53 15.3615L10.5407 15.3228C10.53 15.3411 10.53 15.3615 10.53 15.3615ZM24.6259 30.2515C25.9775 28.9714 27.0717 27.5565 28.0372 25.9395C29.4532 23.5139 30.483 19.8083 30.0968 16.3047C29.5819 11.9253 25.1408 9.365 21.2789 11.3189C18.8331 12.5317 16.9665 14.8898 16.0654 17.787C14.3919 23.2444 16.4516 28.1629 22.3087 30.6558C23.0811 30.9927 23.9822 30.8579 24.6259 30.2515ZM53.8473 7.1416H50.1785V30.9253H53.8473V7.1416ZM55.6495 7.1416H80.2367V10.7125H69.8097V30.9253H66.1409V10.7125H55.6495V7.1416ZM85.8364 7.1416H82.1676V30.9253H85.8364V7.1416ZM93.5601 27.5565H110.488V30.9253H89.8913V7.27635H93.4958V27.5565H93.5601ZM113.063 12.3969C114.543 12.3969 115.637 11.2515 115.637 9.76926C115.637 8.28699 114.543 7.1416 113.063 7.1416C111.647 7.1416 110.488 8.28699 110.488 9.76926C110.488 11.2515 111.647 12.3969 113.063 12.3969ZM115.058 9.76926C115.058 10.9147 114.221 11.8579 113.191 11.8579C111.968 11.8579 111.132 10.9147 111.196 9.76926C111.196 8.62387 112.033 7.68061 113.127 7.68061C114.221 7.68061 115.058 8.62387 115.058 9.76926ZM114.285 11.1168C114.221 10.982 114.157 10.8473 114.092 10.443C114.028 10.1061 113.899 9.90401 113.642 9.90401V9.83664C113.899 9.76926 114.157 9.56713 114.157 9.23026C114.157 8.62387 113.577 8.42175 113.063 8.42175C112.676 8.42175 112.355 8.48912 112.097 8.5565V11.1168H112.676V10.1061H112.934C113.256 10.1061 113.384 10.1735 113.449 10.443C113.513 10.7799 113.577 10.982 113.642 11.1168H114.285ZM112.998 8.826C113.256 8.826 113.577 8.89338 113.577 9.23026C113.577 9.56713 113.32 9.63451 112.998 9.63451H112.676V8.826H112.998Z" fill="#8F63E5"/>
</g>
</svg>
