<svg width="141" height="36" viewBox="0 0 141 36" fill="none" xmlns="http://www.w3.org/2000/svg">
<g id="Logos / DEVOPS" clip-path="url(#clip0_1_3231)">
<path id="Vector" d="M33.4252 20.2929V4.71851H42.1909C46.275 4.71851 50.0626 6.84811 50.0626 12.4946C50.0626 18.1412 46.2327 20.2929 42.1231 20.2929H33.4252ZM35.8104 7.0646V17.9512H41.9833C45.5633 17.9512 47.6732 15.8923 47.6732 12.5432C47.6732 9.1942 45.5633 7.0646 42.0045 7.0646H35.8104Z" fill="#2F4C75"/>
<path id="Vector_2" d="M54.918 18.044H66.2299V20.2929H52.5327V4.69641H66.0012V7.0646H54.918V11.0852H64.1878V13.3827H54.918V18.0484V18.044Z" fill="#2F4C75"/>
<path id="Vector_3" d="M82.1132 4.66986H84.8205L77.1097 20.2928H74.9532L67.2424 4.66986H69.9709L75.9827 17.1117L82.109 4.66986H82.1132Z" fill="#2F4C75"/>
<path id="Vector_4" d="M102 12.6139C102 18.0704 97.5263 20.5093 93.3956 20.5093C89.2648 20.5093 84.8163 18.0704 84.8163 12.6139C84.8163 7.70963 88.2819 4.45337 93.3956 4.45337C98.5093 4.45337 102 7.70521 102 12.6139ZM99.6362 12.256C99.6362 9.00418 97.09 6.68017 93.3956 6.68017C89.7012 6.68017 87.2693 8.99976 87.2693 12.256C87.2693 16.0866 89.4936 18.309 93.3956 18.309C96.4248 18.309 99.6362 16.6831 99.6362 12.256Z" fill="#2F4C75"/>
<path id="Vector_5" d="M118.922 9.31349C118.922 12.3753 116.765 13.9085 113.829 13.9085H106.809V20.2973H104.424V4.69641H113.829C116.765 4.69641 118.922 6.25164 118.922 9.31349ZM116.557 9.33558C116.557 7.92174 115.638 6.9674 113.278 6.9674H106.809V11.5845H113.278C115.642 11.5845 116.557 10.745 116.557 9.33558Z" fill="#2F4C75"/>
<path id="Vector_6" d="M136.517 15.6051C136.517 18.477 133.763 20.5359 128.806 20.5359C125.387 20.5359 122.404 19.5064 120.087 17.4254L121.625 15.6051C123.62 17.4254 125.938 18.2384 128.899 18.2384C132.11 18.2384 133.97 17.3282 133.97 15.7023C133.97 14.2178 132.11 13.8599 128.463 13.5241C124.378 13.1662 120.637 12.1368 120.637 9.04842C120.637 5.96005 123.942 4.43134 128.141 4.43134C131.331 4.43134 133.966 5.36359 135.733 6.96742L134.195 8.69054C132.496 7.18391 130.204 6.63163 128.001 6.63163C125.798 6.63163 123.184 7.2767 123.184 8.92912C123.184 10.5816 125.594 10.8201 128.806 11.1073C133.326 11.5138 136.517 12.3754 136.517 15.6051Z" fill="#2F4C75"/>
<path id="Vector_7" d="M140.601 6.41514C140.601 7.3739 139.868 8.13826 138.927 8.13826C137.987 8.13826 137.228 7.3739 137.228 6.41514C137.228 5.45638 137.987 4.69202 138.927 4.69202C139.868 4.69202 140.601 5.45638 140.601 6.41514ZM138.97 7.78038C139.656 7.78038 140.185 7.15741 140.185 6.41514C140.185 5.67287 139.635 5.0499 138.923 5.0499C138.211 5.0499 137.639 5.64636 137.639 6.41514C137.639 7.18392 138.19 7.78038 138.97 7.78038ZM139.588 6.87022C139.635 7.13531 139.681 7.2281 139.724 7.30321H139.313C139.266 7.23252 139.22 7.08671 139.177 6.87022C139.131 6.70233 139.063 6.63163 138.855 6.63163H138.673V7.30321H138.283V5.60218C138.465 5.55358 138.673 5.53149 138.927 5.53149C139.249 5.53149 139.639 5.65078 139.639 6.05726C139.639 6.29585 139.457 6.41514 139.317 6.46374V6.48583C139.478 6.50792 139.546 6.65372 139.592 6.87022H139.588ZM139.245 6.08377C139.245 5.86727 139.037 5.81867 138.876 5.81867H138.669V6.34445H138.898C139.08 6.34445 139.241 6.27375 139.241 6.07935L139.245 6.08377Z" fill="#2F4C75"/>
<path id="Vector_8" d="M25.6806 15.9232C25.7992 15.0572 25.9093 14.1382 25.9559 13.1838C25.9559 5.90255 20.2745 -0.000244141 13.2628 -0.000244141C10.992 -0.000244141 8.73804 0.635985 6.78493 1.83333C4.88689 2.99975 3.28966 4.67869 2.20507 6.67575C0.874748 9.1323 0.353636 12.0572 0.853565 14.8274C1.32384 17.4386 2.66263 19.8333 4.55643 21.6139C6.4587 23.4033 8.90327 24.5078 11.4368 24.8569C12.0723 24.9453 12.7248 24.9585 13.3645 24.9276C16.8344 24.7685 19.9102 23.1028 22.0624 20.5491C23.003 22.8687 24.9646 24.8436 29.0275 24.4151C28.4768 24.2295 24.418 24.2604 25.689 15.9187M14.4364 21.4858C13.5891 21.9541 12.5892 22.0734 11.6741 21.7729C8.04746 20.5889 5.33174 17.1426 5.1538 12.9762C4.95892 8.39003 7.90341 4.39151 12.0045 3.2295C13.1018 2.91581 14.2754 3.05277 15.2795 3.60506L15.2922 3.61389C15.2244 3.61389 15.1609 3.61389 15.0931 3.62273C11.3775 3.88341 8.36098 6.56087 7.36536 10.0734C7.37383 10.0513 7.3823 10.0292 7.39077 10.0115C7.34841 10.1308 7.30604 10.2501 7.26791 10.3738C5.91641 14.77 8.6067 19.3296 13.0086 21.066C13.4831 21.2516 13.9661 21.3886 14.4449 21.4725L14.4322 21.4813H14.4364V21.4858ZM18.9019 17.0145C18.2833 18.0616 17.5292 19.0204 16.6734 19.8333C16.2582 20.2266 15.6608 20.337 15.1397 20.1205C11.2716 18.5034 9.9116 15.2516 11.0131 11.6816C11.602 9.76411 12.8519 8.24865 14.4449 7.44894C16.9699 6.1809 19.889 7.84217 20.2534 10.7273C20.5372 12.985 19.8593 15.4548 18.9061 17.0145" fill="#2F4C75"/>
<path id="Vector_9" d="M33.4252 27.4328H34.7301V35.8673H33.4252V27.4328Z" fill="#2F4C75"/>
<path id="Vector_10" d="M47.5207 27.4328H48.8129V35.8673H47.6436L41.7419 29.0278V35.8673H40.4751V27.4328H42.0639L47.5207 33.7553V27.4328Z" fill="#2F4C75"/>
<path id="Vector_11" d="M63.082 33.3311C63.082 34.8864 61.5907 35.9998 58.9089 35.9998C57.0574 35.9998 55.4433 35.4431 54.1892 34.3164L55.0196 33.3311C56.1 34.3164 57.354 34.7582 58.9597 34.7582C60.701 34.7582 61.7051 34.2678 61.7051 33.3842C61.7051 32.58 60.6968 32.3856 58.7225 32.2045C56.5109 32.0101 54.4858 31.4534 54.4858 29.7833C54.4858 28.1132 56.2737 27.2825 58.5488 27.2825C60.2773 27.2825 61.7051 27.7862 62.6626 28.6566L61.8322 29.5889C60.9128 28.7715 59.6715 28.4755 58.4767 28.4755C57.282 28.4755 55.8669 28.8245 55.8669 29.7214C55.8669 30.6183 57.1718 30.7464 58.9089 30.9011C61.3577 31.122 63.082 31.5859 63.082 33.3355V33.3311Z" fill="#2F4C75"/>
<path id="Vector_12" d="M67.7721 27.4328H76.5336V28.6876H72.8053V35.8673H71.5004V28.6876H67.7721V27.4328Z" fill="#2F4C75"/>
<path id="Vector_13" d="M81.4989 27.4328H82.8038V35.8673H81.4989V27.4328Z" fill="#2F4C75"/>
<path id="Vector_14" d="M87.748 27.4328H96.5095V28.6876H92.7812V35.8673H91.4763V28.6876H87.748V27.4328Z" fill="#2F4C75"/>
<path id="Vector_15" d="M101.505 31.8776V27.4328H102.759V31.8511C102.759 33.393 103.703 34.7141 105.902 34.7141C108.262 34.7141 109.046 33.4063 109.046 31.9041V27.4328H110.313V31.8776C110.313 34.4048 108.622 35.9998 105.864 35.9998C103.106 35.9998 101.505 34.3651 101.505 31.8776Z" fill="#2F4C75"/>
<path id="Vector_16" d="M115.312 27.4328H124.073V28.6876H120.345V35.8673H119.04V28.6876H115.312V27.4328Z" fill="#2F4C75"/>
<path id="Vector_17" d="M130.331 34.6522H136.457V35.8717H129.039V27.424H136.33V28.7052H130.327V30.8834H135.347V32.1294H130.327V34.6566H130.331V34.6522Z" fill="#2F4C75"/>
</g>
<defs>
<clipPath id="clip0_1_3231">
<rect width="140" height="36" fill="white" transform="translate(0.666748 -0.000244141)"/>
</clipPath>
</defs>
</svg>
