<svg width="198" height="36" viewBox="0 0 198 36" fill="none" xmlns="http://www.w3.org/2000/svg">
<g id="Logos / PRINCE2" clip-path="url(#clip0_1_3229)">
<path id="Vector" fill-rule="evenodd" clip-rule="evenodd" d="M36.0496 19.0511C35.9306 20.4529 35.8117 21.7272 35.6332 23.0015C34.0263 33.8443 38.4477 34.8728 39.8657 35.2027C40.0226 35.2392 40.1427 35.2671 40.2139 35.2989C34.5029 35.8723 31.7664 33.0051 30.4576 29.6918C27.4237 33.3874 23.1405 35.7449 18.2624 35.9998H18.2623C17.37 35.9998 16.4777 35.9998 15.5853 35.8723C12.0755 35.4263 8.62511 33.7697 5.9481 31.221C3.33057 28.6086 1.42692 25.1679 0.77254 21.4086C0.0586705 17.3944 0.772541 13.1891 2.6167 9.62099C4.10393 6.69002 6.36452 4.26878 9.04153 2.61215C11.778 0.891791 14.931 -0.000244141 18.1434 -0.000244141C28.0186 -0.000244141 35.9901 8.53781 36.0496 19.0511ZM15.9423 31.4121C17.1915 31.8582 18.6193 31.7307 19.8091 31.0298C19.1547 30.9024 18.5003 30.7113 17.8459 30.4564C11.6591 27.9714 7.85175 21.4086 9.7554 15.0369C9.78515 14.9413 9.81489 14.8617 9.84464 14.7821C9.87438 14.7024 9.90413 14.6228 9.93387 14.5272C9.90796 14.5272 9.89333 14.5393 9.88508 14.5529C11.3231 9.47427 15.5387 5.60604 20.7014 5.28825H20.9989C19.6306 4.45993 17.9649 4.26878 16.4182 4.7148C10.6477 6.37144 6.54299 12.106 6.78095 18.7325C7.0189 24.7219 10.8262 29.6918 15.9423 31.4121ZM9.87438 14.5909C9.87438 14.5909 9.87438 14.5706 9.88508 14.5529C9.8815 14.5656 9.87793 14.5782 9.87438 14.5909ZM22.962 28.6723C24.2113 27.4617 25.2226 26.1237 26.1149 24.5944C27.4237 22.3006 28.3755 18.7325 28.0186 15.4829C27.5427 11.3413 23.4379 8.92011 19.8686 10.7679C17.608 11.9148 15.8828 14.1449 15.0499 16.8847C13.5032 22.0458 15.4069 26.6971 20.8204 29.0546C21.5343 29.3732 22.3671 29.2458 22.962 28.6723ZM190.424 26.06H176.385C178.042 23.896 180.151 22.8917 182.829 21.6164C183.226 21.4272 183.636 21.2321 184.059 21.0263C187.212 19.5608 190.543 17.8405 190.543 13.1254C190.543 8.92014 187.39 6.43518 181.858 6.43518C178.764 6.43518 174.124 8.21925 172.637 12.8706L175.314 14.2723C176.385 11.0228 179.062 9.49359 182.036 9.49359C185.129 9.49359 187.212 10.9591 187.212 13.1892C187.212 15.8569 185.497 16.6884 182.363 18.2084L182.333 18.2228C182.14 18.3214 181.944 18.4205 181.746 18.5205L181.742 18.5229C178.238 20.2963 174.203 22.3391 172.458 26.3785V29.2458H190.424V26.06ZM147.83 23.0015L144.974 21.2812C143.428 24.4033 141.167 26.506 136.884 26.5697C131.53 26.5697 128.258 23.5113 128.258 18.6688C128.258 12.9343 131.232 9.74843 136.705 9.74843C140.156 9.74843 143.309 11.0865 144.677 14.7821L147.532 13.444C145.867 8.53781 141.226 6.56259 136.705 6.56259C129.448 6.56259 124.926 11.3414 124.926 18.5414C124.926 25.6139 129.507 29.6918 136.705 29.6918C141.762 29.6918 145.629 28.0352 147.83 23.0015ZM66.865 13.444C66.865 17.8405 63.831 20.0706 59.7263 20.0706H49.8511V29.3095H46.5197V6.81747H59.7263C63.831 6.81747 66.865 9.04756 66.865 13.444ZM63.5336 13.5077C63.5336 11.4688 62.2248 10.067 58.9529 10.067H49.8511V16.7573H58.9529C62.2843 16.7573 63.5336 15.5467 63.5336 13.5077ZM83.7004 19.6246L90.2442 29.3095H86.08L79.7147 19.8157H72.3975V29.3095H69.0661V6.81747H81.7968C88.1026 6.81747 89.5899 10.2582 89.5899 13.3166C89.5899 17.3307 86.5559 19.2423 83.7004 19.6246ZM81.2614 16.375C84.7117 16.375 86.199 15.483 86.199 13.3166C86.199 10.9591 84.7117 10.1307 81.2614 10.1307H72.3975V16.375H81.2614ZM96.0147 6.81747H92.6238V29.3095H96.0147V6.81747ZM118.085 6.81747H121.417V29.3095H118.442L103.094 11.0865V29.3095H99.822V6.81747H103.927L118.085 23.6387V6.81747ZM153.898 26.06H169.781V29.3095H150.566V6.81747H169.484V10.2582H153.898V16.0564H166.926V19.3697H153.898V26.06ZM197.265 9.30243C197.265 10.7042 196.254 11.7874 194.886 11.7874C193.577 11.7874 192.506 10.7042 192.506 9.30243C192.506 7.90066 193.577 6.81747 194.886 6.81747C196.254 6.81747 197.265 7.90066 197.265 9.30243ZM195.005 11.2777C195.956 11.2777 196.73 10.3856 196.73 9.30243C196.73 8.21924 195.956 7.32721 194.945 7.32721C193.934 7.32721 193.16 8.21924 193.16 9.30243C193.101 10.3856 193.874 11.2777 195.005 11.2777ZM195.837 9.9396C195.897 10.3219 195.956 10.4493 196.016 10.5768H195.421C195.362 10.4493 195.302 10.2582 195.243 9.9396C195.183 9.68473 195.064 9.62101 194.767 9.62101H194.588V10.5768H193.993V8.15553C194.231 8.09181 194.529 8.02809 194.886 8.02809C195.362 8.02809 195.897 8.21924 195.897 8.7927C195.897 9.11128 195.659 9.30243 195.421 9.36615V9.42986C195.659 9.42986 195.778 9.62101 195.837 9.9396ZM195.362 8.7927C195.362 8.47411 195.064 8.41039 194.826 8.41039H194.529V9.175H194.826C195.124 9.175 195.362 9.04756 195.362 8.7927Z" fill="#2DBFA5"/>
</g>
<defs>
<clipPath id="clip0_1_3229">
<rect width="197" height="36" fill="white" transform="translate(0.5 -0.000244141)"/>
</clipPath>
</defs>
</svg>
