<svg width="24" height="24" viewBox="0 0 24 24" fill="none" xmlns="http://www.w3.org/2000/svg">
<g id=" Navigation / Search ">
<path id="Vector" d="M19.9 20.9765L13.325 14.4015C12.825 14.8349 12.242 15.1724 11.576 15.4141C10.9101 15.6557 10.2014 15.7765 9.45 15.7765C7.64733 15.7765 6.12163 15.1515 4.87297 13.9015C3.62433 12.6515 3 11.1432 3 9.37654C3 7.60987 3.625 6.10156 4.875 4.85156C6.125 3.60156 7.63753 2.97656 9.41253 2.97656C11.1875 2.97656 12.6959 3.60156 13.9375 4.85156C15.1792 6.10156 15.8 7.61114 15.8 9.38034C15.8 10.0945 15.6833 10.7849 15.45 11.4515C15.2167 12.1182 14.8667 12.7432 14.4 13.3265L21 19.8765L19.9 20.9765ZM9.425 14.2765C10.7792 14.2765 11.9302 13.7974 12.8781 12.8391C13.8261 11.8807 14.3 10.7265 14.3 9.37654C14.3 8.02654 13.8261 6.8724 12.8781 5.91406C11.9302 4.95573 10.7792 4.47656 9.425 4.47656C8.05693 4.47656 6.89407 4.95573 5.93645 5.91406C4.97881 6.8724 4.5 8.02654 4.5 9.37654C4.5 10.7265 4.97881 11.8807 5.93645 12.8391C6.89407 13.7974 8.05693 14.2765 9.425 14.2765Z" fill="#FF3200"/>
</g>
</svg>
