<svg width="32" height="32" viewBox="0 0 32 32" fill="none" xmlns="http://www.w3.org/2000/svg">
    <path d="M11.5281 29.9998L8.99479 25.6664L3.96146 24.6331L4.52812 19.7331L1.32812 15.9998L4.52812 12.2998L3.96146 7.39976L8.99479 6.36642L11.5281 1.99976L15.9948 4.06642L20.4615 1.99976L23.0281 6.36642L28.0281 7.39976L27.4615 12.2998L30.6614 15.9998L27.4615 19.7331L28.0281 24.6331L23.0281 25.6664L20.4615 29.9998L15.9948 27.9331L11.5281 29.9998ZM12.4281 27.3664L15.9948 25.8664L19.6615 27.3664L21.8948 24.0331L25.7948 23.0331L25.3948 19.0664L28.0948 15.9998L25.3948 12.8664L25.7948 8.89976L21.8948 7.96642L19.5948 4.63309L15.9948 6.13309L12.3281 4.63309L10.0948 7.96642L6.19479 8.89976L6.59479 12.8664L3.89479 15.9998L6.59479 19.0664L6.19479 23.0998L10.0948 24.0331L12.4281 27.3664ZM14.5615 20.4331L22.1281 12.9331L20.6281 11.5664L14.5615 17.5664L11.3948 14.2664L9.86146 15.7664L14.5615 20.4331Z" fill="white"/>
</svg>
