<svg width="16" height="16" viewBox="0 0 16 16" fill="none" xmlns="http://www.w3.org/2000/svg">
<g id="percent_FILL0_wght400_GRAD0_opsz48 1">
<path id="Vector" d="M4.82905 7.00008C4.23017 7.00008 3.71962 6.78841 3.2974 6.36506C2.87517 5.94172 2.66406 5.43061 2.66406 4.83173C2.66406 4.23285 2.87573 3.7223 3.29908 3.30008C3.72242 2.87786 4.23354 2.66675 4.83241 2.66675C5.43129 2.66675 5.94184 2.87842 6.36406 3.30176C6.78628 3.72511 6.9974 4.23622 6.9974 4.8351C6.9974 5.43398 6.78572 5.94453 6.36238 6.36675C5.93903 6.78897 5.42792 7.00008 4.82905 7.00008ZM4.82876 6.00008C5.1523 6.00008 5.42795 5.88685 5.65573 5.66038C5.88351 5.4339 5.9974 5.1589 5.9974 4.83538C5.9974 4.51185 5.88416 4.23619 5.6577 4.00841C5.43122 3.78064 5.15622 3.66675 4.8327 3.66675C4.50916 3.66675 4.23351 3.77998 4.00573 4.00645C3.77795 4.23293 3.66406 4.50793 3.66406 4.83145C3.66406 5.15498 3.7773 5.43064 4.00376 5.65841C4.23024 5.88619 4.50524 6.00008 4.82876 6.00008ZM11.1624 13.3334C10.5635 13.3334 10.053 13.1217 9.63073 12.6984C9.20851 12.2751 8.9974 11.7639 8.9974 11.1651C8.9974 10.5662 9.20907 10.0556 9.63241 9.63342C10.0558 9.21119 10.5669 9.00008 11.1657 9.00008C11.7646 9.00008 12.2752 9.21175 12.6974 9.6351C13.1196 10.0584 13.3307 10.5696 13.3307 11.1684C13.3307 11.7673 13.1191 12.2779 12.6957 12.7001C12.2724 13.1223 11.7613 13.3334 11.1624 13.3334ZM11.1621 12.3334C11.4856 12.3334 11.7613 12.2202 11.9891 11.9937C12.2168 11.7672 12.3307 11.4922 12.3307 11.1687C12.3307 10.8452 12.2175 10.5695 11.991 10.3417C11.7646 10.114 11.4896 10.0001 11.166 10.0001C10.8425 10.0001 10.5668 10.1133 10.3391 10.3398C10.1113 10.5663 9.9974 10.8413 9.9974 11.1648C9.9974 11.4883 10.1106 11.764 10.3371 11.9917C10.5636 12.2195 10.8386 12.3334 11.1621 12.3334ZM3.36406 13.3334L2.66406 12.6334L12.6307 2.66675L13.3307 3.36675L3.36406 13.3334Z" fill="white"/>
</g>
</svg>
