<svg width="47" height="46" viewBox="0 0 47 46" fill="none" xmlns="http://www.w3.org/2000/svg">
    <circle cx="23.5" cy="23" r="22.5" stroke="white" />
    <path d="M33.8823 18.8392C33.8968 19.0501 33.8968 19.261 33.8968 19.4738C33.8968 25.9591 28.9806 33.4386 19.9913 33.4386V33.4347C17.3358 33.4386 14.7355 32.6747 12.5 31.2344C12.8861 31.281 13.2742 31.3043 13.6632 31.3053C15.8639 31.3073 18.0016 30.5657 19.7329 29.2003C17.6416 29.1604 15.8077 27.791 15.1671 25.7919C15.8997 25.9338 16.6545 25.9047 17.3735 25.7074C15.0935 25.2448 13.4532 23.233 13.4532 20.8966V20.8344C14.1326 21.2144 14.8932 21.4253 15.6713 21.4486C13.5239 20.0074 12.8619 17.1384 14.1587 14.8953C16.64 17.9616 20.301 19.8256 24.231 20.0229C23.8371 18.3183 24.3752 16.532 25.6448 15.3337C27.6132 13.4754 30.709 13.5707 32.5594 15.5465C33.6539 15.3298 34.7029 14.9264 35.6629 14.355C35.2981 15.4911 34.5345 16.4562 33.5145 17.0694C34.4832 16.9547 35.4297 16.6943 36.321 16.2968C35.6648 17.2842 34.8384 18.1443 33.8823 18.8392Z" fill="white" />
</svg>
