<svg width="24" height="24" viewBox="0 0 24 24" fill="none" xmlns="http://www.w3.org/2000/svg">
<g id=" Utility / Basket">
<path id="Vector" d="M6.3125 21C5.9625 21 5.65625 20.865 5.39375 20.595C5.13125 20.325 5 20.01 5 19.65V7.95C5 7.59 5.13125 7.275 5.39375 7.005C5.65625 6.735 5.9625 6.6 6.3125 6.6H8.71875V6.375C8.71875 5.43 9.03597 4.63125 9.67034 3.97875C10.3047 3.32625 11.0812 3 12 3C12.9187 3 13.6953 3.32625 14.3297 3.97875C14.9641 4.63125 15.2812 5.43 15.2812 6.375V6.6H17.6875C18.0375 6.6 18.3438 6.735 18.6062 7.005C18.8687 7.275 19 7.59 19 7.95V19.65C19 20.01 18.8687 20.325 18.6062 20.595C18.3438 20.865 18.0375 21 17.6875 21H6.3125ZM6.3125 19.65H17.6875V7.95H15.2812V9.975C15.2812 10.1663 15.218 10.3265 15.0915 10.456C14.965 10.5853 14.8082 10.65 14.6212 10.65C14.4341 10.65 14.2787 10.5853 14.1547 10.456C14.0308 10.3265 13.9688 10.1663 13.9688 9.975V7.95H10.0312V9.975C10.0312 10.1663 9.96802 10.3265 9.84149 10.456C9.71497 10.5853 9.55817 10.65 9.37115 10.65C9.18413 10.65 9.02868 10.5853 8.90472 10.456C8.78076 10.3265 8.71875 10.1663 8.71875 9.975V7.95H6.3125V19.65ZM10.0312 6.6H13.9688V6.375C13.9688 5.805 13.7792 5.325 13.4 4.935C13.0208 4.545 12.5542 4.35 12 4.35C11.4458 4.35 10.9792 4.545 10.6 4.935C10.2208 5.325 10.0312 5.805 10.0312 6.375V6.6Z" fill="#FF3200"/>
</g>
</svg>
