<svg width="32" height="32" viewBox="0 0 32 32" fill="none" xmlns="http://www.w3.org/2000/svg">
<g id=" Utility / Language">
<path id="Vector" d="M16 26C14.6 26 13.2917 25.7375 12.075 25.2125C10.8583 24.6875 9.8 23.975 8.9 23.075C8 22.175 7.29166 21.1125 6.775 19.8875C6.25833 18.6625 6 17.35 6 15.95C6 14.55 6.25833 13.2458 6.775 12.0375C7.29166 10.8292 8 9.775 8.9 8.875C9.8 7.975 10.8583 7.27084 12.075 6.7625C13.2917 6.25417 14.6 6 16 6C17.4 6 18.7084 6.25417 19.925 6.7625C21.1416 7.27084 22.2 7.975 23.1 8.875C24 9.775 24.7084 10.8292 25.225 12.0375C25.7416 13.2458 26 14.55 26 15.95C26 17.35 25.7416 18.6625 25.225 19.8875C24.7084 21.1125 24 22.175 23.1 23.075C22.2 23.975 21.1416 24.6875 19.925 25.2125C18.7084 25.7375 17.4 26 16 26ZM16 24.55C16.5834 23.95 17.0708 23.2625 17.4625 22.4875C17.8542 21.7125 18.175 20.7916 18.425 19.725H13.6C13.8333 20.725 14.1458 21.625 14.5375 22.425C14.9292 23.225 15.4166 23.9334 16 24.55ZM13.875 24.25C13.4583 23.6166 13.1 22.9334 12.8 22.2C12.5 21.4666 12.25 20.6416 12.05 19.725H8.3C8.93334 20.9084 9.66666 21.8375 10.5 22.5125C11.3333 23.1875 12.4583 23.7666 13.875 24.25ZM18.15 24.225C19.35 23.8416 20.4292 23.2666 21.3875 22.5C22.3458 21.7334 23.1166 20.8084 23.7 19.725H19.975C19.7584 20.625 19.5042 21.4416 19.2125 22.175C18.9208 22.9084 18.5666 23.5916 18.15 24.225ZM7.8 18.225H11.775C11.725 17.775 11.6958 17.3708 11.6875 17.0125C11.6792 16.6542 11.675 16.3 11.675 15.95C11.675 15.5334 11.6833 15.1625 11.7 14.8375C11.7167 14.5125 11.75 14.15 11.8 13.75H7.8C7.68334 14.15 7.60416 14.5083 7.5625 14.825C7.52084 15.1416 7.5 15.5166 7.5 15.95C7.5 16.3834 7.52084 16.7708 7.5625 17.1125C7.60416 17.4542 7.68334 17.825 7.8 18.225ZM13.325 18.225H18.7C18.7666 17.7084 18.8084 17.2875 18.825 16.9625C18.8416 16.6375 18.85 16.3 18.85 15.95C18.85 15.6166 18.8416 15.2958 18.825 14.9875C18.8084 14.6792 18.7666 14.2667 18.7 13.75H13.325C13.2583 14.2667 13.2167 14.6792 13.2 14.9875C13.1833 15.2958 13.175 15.6166 13.175 15.95C13.175 16.3 13.1833 16.6375 13.2 16.9625C13.2167 17.2875 13.2583 17.7084 13.325 18.225ZM20.2 18.225H24.2C24.3166 17.825 24.3958 17.4542 24.4375 17.1125C24.4792 16.7708 24.5 16.3834 24.5 15.95C24.5 15.5166 24.4792 15.1416 24.4375 14.825C24.3958 14.5083 24.3166 14.15 24.2 13.75H20.225C20.275 14.3333 20.3084 14.7792 20.325 15.0875C20.3416 15.3958 20.35 15.6834 20.35 15.95C20.35 16.3166 20.3375 16.6625 20.3125 16.9875C20.2875 17.3125 20.25 17.725 20.2 18.225ZM19.95 12.25H23.7C23.15 11.1 22.3958 10.1417 21.4375 9.375C20.4792 8.60834 19.375 8.06666 18.125 7.75C18.5416 8.36666 18.8958 9.03334 19.1875 9.75C19.4792 10.4667 19.7334 11.3 19.95 12.25ZM13.6 12.25H18.45C18.2666 11.3667 17.9584 10.5125 17.525 9.6875C17.0916 8.8625 16.5834 8.13334 16 7.5C15.4666 7.95 15.0167 8.54166 14.65 9.275C14.2833 10.0083 13.9333 11 13.6 12.25ZM8.3 12.25H12.075C12.2583 11.35 12.4917 10.5458 12.775 9.8375C13.0583 9.12916 13.4167 8.44166 13.85 7.775C12.6 8.09166 11.5083 8.625 10.575 9.375C9.64166 10.125 8.88334 11.0833 8.3 12.25Z" fill="white"/>
</g>
</svg>
