<svg width="32" height="62" viewBox="0 0 32 62" fill="none" xmlns="http://www.w3.org/2000/svg">
<path id="Vector" d="M28.9967 36.1964L13.8473 58.899C13.6638 59.1718 13.4575 59.4285 13.2284 59.6685C11.8159 61.1632 9.61656 62 7.37619 62C6.17864 62 4.97931 61.7624 3.8552 61.2728C3.20311 60.9866 2.62706 60.632 2.13056 60.2275C-0.096708 58.4104 -0.693733 55.5711 0.905036 53.2178L2.13056 51.4081L13.2284 35.0261L16.1891 30.6558L13.2284 26.4212L2.13056 10.5512L0.941749 8.85201C-1.0495 5.98886 0.222348 2.36896 3.76342 0.767537C6.96447 -0.687595 10.9277 -0.00468897 13.1375 2.23252C13.169 2.26276 13.1996 2.29371 13.2284 2.32465C13.4408 2.5476 13.6358 2.78461 13.8106 3.03639L31.1777 27.9277C32.7817 30.2268 32.0308 32.047 28.9976 36.1964H28.9967Z" fill="#FF3200"/>
</svg>
