<?xml version="1.0" encoding="UTF-8"?>
<svg width="16" height="16" viewBox="0 0 16 16" fill="none" xmlns="http://www.w3.org/2000/svg">
    <path fill-rule="evenodd" clip-rule="evenodd" d="M2.19512 3.06241C1.78441 3.13683 1.3793 3.41098 1.17073 3.75561L1 4.03781V7.99588V11.954L1.17073 12.2361C1.38886 12.5966 1.78858 12.8541 2.25563 12.9351C2.7528 13.0213 13.2472 13.0213 13.7444 12.9351C14.2114 12.8541 14.6111 12.5966 14.8293 12.2361L15 11.954V7.99588V4.03781L14.8293 3.75561C14.6111 3.39521 14.2114 3.13765 13.7444 3.05665C13.2865 2.97724 2.63575 2.98262 2.19512 3.06241ZM8.92468 4.54584C10.3191 4.87591 11.4687 5.96555 11.7495 7.2232C12.1728 9.11953 10.9349 10.97 8.92468 11.4459C6.90902 11.9232 4.81524 10.7532 4.28099 8.85114C3.76449 7.01219 5.0307 5.04069 7.0439 4.54945C7.54162 4.42798 8.4198 4.42627 8.92468 4.54584ZM7.01461 6.51214C6.92364 6.59656 6.90732 6.82195 6.90732 7.99588C6.90732 9.89702 6.92391 9.90817 8.39446 9.00085C9.52682 8.30221 9.63902 8.21164 9.63902 7.99588C9.63902 7.78012 9.52682 7.68956 8.39446 6.99091C7.44437 6.40474 7.216 6.32545 7.01461 6.51214Z" fill="#FF3200" />
</svg>
