<svg width="47" height="46" viewBox="0 0 47 46" fill="none" xmlns="http://www.w3.org/2000/svg">
    <circle cx="23.5" cy="23" r="22.5" stroke="white" />
    <path d="M36.2214 18C36.0803 17.0438 35.7312 16.1324 35.2 15.3333C34.4923 14.6491 33.5711 14.2442 32.6 14.1905C28.9786 14 23.5 14 23.5 14C23.5 14 18.0214 14 14.4 14.2857C13.4235 14.2142 12.4679 14.5993 11.8 15.3333C11.2552 16.1249 10.9048 17.0397 10.7786 18C10.6076 19.4221 10.5146 20.8529 10.5 22.2857V24.2857C10.5098 25.7187 10.6029 27.1498 10.7786 28.5714C10.9197 29.5276 11.2688 30.439 11.8 31.2381C12.5996 31.9528 13.6182 32.3573 14.6786 32.381C16.7214 32.5714 23.5 32.6667 23.5 32.6667C23.5 32.6667 28.9786 32.6667 32.6 32.381C33.5711 32.3272 34.4923 31.9223 35.2 31.2381C35.7448 30.4465 36.0952 29.5317 36.2214 28.5714C36.3924 27.1493 36.4854 25.7185 36.5 24.2857V22.2857C36.4854 20.8529 36.3924 19.4221 36.2214 18ZM20.8071 26.7619V19.2381L27.8643 22.9524L20.8071 26.7619Z" fill="white" />
</svg>
